{"glyphs":{"0":{"ha":715,"x_min":45,"x_max":697,"o":"m 260 815 q 231 757 242 792 q 196 433 196 654 l 196 422 q 229 324 203 355 q 210 203 208 258 q 231 110 218 149 q 359 6 265 6 q 496 110 452 6 q 526 224 515 156 q 489 300 524 270 q 540 433 528 343 l 540 433 q 496 757 540 654 q 476 795 487 778 q 443 765 471 772 q 421 843 449 832 q 345 827 359 868 q 260 815 295 846 m 47 365 q 45 433 45 398 q 133 763 45 636 q 357 889 221 889 q 583 762 494 889 q 613 713 600 739 q 620 768 618 735 q 641 645 637 724 q 671 433 671 553 q 650 255 671 336 q 697 176 684 238 q 635 205 676 210 q 583 105 614 151 q 357 -22 494 -22 q 134 104 221 -22 q 107 146 119 124 q 123 15 100 69 q 47 365 54 106 z "},"1":{"ha":604,"x_min":109,"x_max":518,"o":"m 387 535 l 387 183 q 404 63 387 129 q 518 52 420 -2 l 505 0 l 130 0 l 117 52 q 238 64 222 -2 q 254 183 254 130 l 254 250 q 221 407 241 373 q 254 608 250 479 l 254 665 q 230 803 254 791 q 129 771 205 814 l 109 803 q 256 868 197 823 q 336 981 315 912 l 337 979 l 338 991 q 406 845 349 901 q 387 658 387 744 q 433 542 389 562 q 387 535 407 530 z "},"2":{"ha":604,"x_min":27,"x_max":553,"o":"m 155 258 q 165 315 164 286 q 173 284 172 301 q 201 321 186 302 q 236 361 212 334 q 330 490 304 441 q 362 587 352 530 q 364 600 363 593 q 270 529 336 551 q 372 720 353 626 l 372 721 q 338 888 372 833 q 232 943 303 943 q 119 891 167 943 q 72 764 72 838 q 109 730 72 732 q 160 727 146 727 q 139 645 167 727 q 72 610 111 564 q 27 556 68 578 q 39 675 44 611 q 31 732 32 702 l 31 743 q 99 913 31 848 q 278 979 168 979 q 456 902 384 979 q 512 808 494 861 q 553 882 522 840 q 528 745 522 783 l 528 710 q 515 633 528 672 q 526 496 513 566 q 469 534 492 503 q 307 354 414 448 q 284 334 292 341 q 171 217 212 271 q 118 119 130 163 l 374 119 q 469 144 443 119 q 501 378 495 168 l 536 358 q 539 -38 490 92 q 521 -50 538 -54 q 39 0 416 12 q 95 159 52 74 q 155 258 121 210 z "},"3":{"ha":604,"x_min":-7,"x_max":581,"o":"m 369 632 q 378 739 378 667 q 346 897 378 847 q 245 946 315 946 l 239 946 q 170 916 186 940 q 98 863 126 906 q 89 819 89 842 q 96 796 89 805 q 113 787 102 787 q 109 714 115 787 q 73 679 104 642 q 41 772 41 715 l 41 778 q -7 787 22 770 q 55 845 34 806 q 63 863 58 854 q 64 865 64 864 l 64 865 q 106 920 80 895 q 214 976 153 963 q 206 1006 207 985 q 279 981 221 991 q 448 911 380 976 q 521 737 521 842 q 471 627 521 660 q 332 566 420 594 q 489 474 431 545 q 547 250 547 404 q 547 228 547 239 q 581 50 553 102 q 502 99 516 73 q 471 63 488 80 q 278 -12 394 -12 q 232 -10 254 -12 q 87 -50 159 -12 q 157 8 111 -15 q 32 242 32 60 q 64 341 32 302 q 146 380 97 380 q 207 354 181 380 q 232 294 232 329 q 209 236 232 258 q 150 214 186 214 q 127 216 142 214 q 109 218 113 218 q 92 211 99 218 q 85 193 85 203 q 240 22 85 20 q 358 79 319 22 l 363 87 q 340 106 350 91 q 374 119 368 102 q 342 206 392 178 q 391 361 395 276 q 364 394 386 387 q 381 460 380 416 q 370 492 376 480 q 278 539 344 539 q 246 536 266 539 q 218 534 227 534 q 194 540 202 534 q 186 559 186 547 q 195 580 186 572 q 221 587 205 587 q 248 585 229 587 q 278 583 267 583 q 345 595 321 583 q 427 667 369 605 q 369 632 392 642 z "},"4":{"ha":604,"x_min":46,"x_max":567,"o":"m 235 581 l 100 220 l 239 220 l 194 257 q 319 231 251 225 l 319 794 l 303 763 l 277 693 l 270 612 l 235 581 m 446 811 l 446 239 q 475 241 460 241 q 546 220 477 230 l 567 220 l 567 139 l 509 139 l 509 138 q 514 86 473 125 q 454 153 474 93 q 445 184 448 168 q 446 134 444 171 l 446 115 q 462 46 446 61 q 528 32 478 32 l 567 32 l 567 0 l 200 0 l 200 32 l 237 32 q 303 47 287 32 q 319 115 319 62 l 319 139 l 46 139 l 46 185 l 192 552 q 209 664 205 595 q 283 792 264 709 q 184 781 256 772 q 345 937 279 820 l 357 968 l 358 968 l 507 982 q 446 811 476 966 z "},"5":{"ha":604,"x_min":20,"x_max":564,"o":"m 173 768 q 147 771 154 768 q 142 650 146 693 q 134 541 139 607 q 212 597 170 578 q 302 616 254 616 q 488 528 412 616 q 507 504 498 516 q 554 581 513 551 q 549 414 538 534 q 564 311 564 366 q 483 79 564 170 q 277 -12 401 -12 q 115 49 178 -12 q 50 199 51 109 q 20 243 43 229 q 61 278 49 262 q 83 307 73 295 q 167 349 116 349 q 193 274 203 349 q 191 259 192 266 q 202 133 186 191 q 159 199 170 165 q 130 199 142 201 q 94 181 104 196 q 92 165 92 174 q 142 66 92 109 q 262 22 192 22 q 380 82 344 22 q 399 125 391 100 q 420 267 420 180 q 394 151 412 189 l 385 204 l 407 356 q 340 329 389 335 q 387 500 396 414 q 383 511 385 507 q 271 581 349 581 q 200 559 234 581 q 146 500 167 537 q 89 490 111 439 q 112 703 108 614 l 79 670 q 112 787 102 709 q 111 827 112 806 q 110 873 110 869 q 117 905 110 891 q 135 919 124 919 q 174 903 138 919 q 277 887 210 887 q 384 916 332 887 q 467 974 436 945 l 498 974 q 418 842 479 897 q 295 782 368 798 q 308 724 314 764 q 173 768 269 761 z "},"6":{"ha":604,"x_min":58,"x_max":585,"o":"m 425 169 q 376 161 414 144 q 428 285 412 198 q 406 494 427 433 q 329 557 382 557 q 244 491 273 557 q 215 298 215 425 q 242 83 215 151 q 329 16 270 16 q 405 68 382 16 l 424 161 q 425 169 424 165 m 212 533 l 212 532 q 188 346 165 428 q 237 537 182 452 q 271 570 252 557 q 355 597 307 597 q 513 515 450 597 q 575 306 575 433 q 501 81 575 174 q 431 17 469 40 q 472 -31 454 4 q 340 -12 434 -14 q 325 -12 333 -12 q 133 113 207 -12 q 58 446 58 239 q 144 832 58 685 q 364 979 230 979 q 399 977 382 979 q 519 1017 492 982 q 487 946 509 952 q 503 935 495 941 q 555 751 552 892 q 585 719 561 726 q 485 651 557 671 l 486 652 q 468 650 477 650 q 440 770 432 650 q 449 903 449 890 q 426 936 449 921 q 370 951 402 951 q 246 878 281 951 q 211 593 211 805 l 211 591 q 271 674 251 623 q 212 533 258 589 z "},"7":{"ha":576,"x_min":31,"x_max":505,"o":"m 364 964 q 504 896 505 939 q 492 756 504 821 q 444 603 479 692 q 419 542 437 583 q 391 474 404 507 q 342 229 344 315 q 309 282 315 251 q 298 257 303 269 q 258 74 258 166 q 239 11 258 33 q 189 -12 221 -12 q 117 26 144 -12 q 109 47 111 35 q 31 81 93 79 q 143 188 98 116 q 243 348 188 260 q 271 537 277 467 q 309 450 302 485 q 332 485 321 468 q 347 564 347 530 q 397 608 374 559 q 414 753 434 688 q 449 706 441 728 q 454 722 451 714 q 472 854 470 783 l 267 873 q 145 852 193 880 q 107 678 98 823 l 75 692 q 48 998 99 789 l 269 977 q 386 1017 350 974 q 364 964 382 977 z "},"8":{"ha":604,"x_min":40,"x_max":566,"o":"m 352 401 q 338 317 361 361 q 238 463 353 385 q 160 374 184 422 q 134 250 134 323 q 182 96 134 153 q 311 40 229 40 q 437 89 385 40 q 489 208 489 138 q 446 326 489 275 q 352 401 420 357 m 215 663 q 224 765 208 702 q 341 586 254 641 q 410 656 384 608 q 435 764 435 704 q 393 890 435 844 q 280 937 351 937 q 165 897 209 937 q 121 793 121 857 q 215 663 121 733 m 503 85 q 488 67 496 76 q 293 -12 409 -12 q 114 62 187 -12 q 40 245 40 137 q 80 378 40 319 q 203 488 120 437 q 100 593 134 532 q 93 608 96 600 q 40 578 78 584 q 68 706 58 626 q 66 733 66 720 q 135 910 66 841 q 311 979 204 979 q 474 917 411 979 q 538 755 538 854 q 504 636 538 688 q 400 543 469 583 q 523 416 481 488 q 566 264 566 345 q 551 170 566 213 q 552 34 530 89 q 503 85 524 51 z "},"9":{"ha":604,"x_min":38,"x_max":565,"o":"m 199 818 q 248 825 210 843 q 195 702 211 789 q 218 493 196 554 q 294 430 241 430 q 379 496 350 430 q 408 688 408 562 q 381 904 408 836 q 294 971 353 971 q 218 919 241 971 l 199 825 q 199 818 199 822 m 412 454 l 412 454 q 435 641 458 559 q 386 450 441 535 q 353 416 372 430 q 268 389 316 389 q 111 472 173 389 q 48 681 48 554 q 122 906 48 813 q 192 970 155 947 q 151 1017 170 983 q 283 998 189 1000 q 298 999 290 999 q 491 873 416 999 q 565 541 565 748 q 479 155 565 302 q 259 7 393 7 q 224 9 241 7 q 104 -31 132 5 q 136 41 115 35 q 121 52 128 46 q 68 236 71 95 q 38 268 62 261 q 138 336 66 315 l 138 335 q 155 336 146 336 q 183 217 191 336 q 174 84 174 97 q 198 51 174 66 q 254 35 221 35 q 377 109 342 35 q 412 394 412 182 l 412 396 q 353 313 372 364 q 412 454 365 398 z "},"\u0000":{"ha":0,"x_min":0,"x_max":0,"o":""}," ":{"ha":345,"x_min":0,"x_max":0,"o":""},"!":{"ha":382,"x_min":95,"x_max":294,"o":"m 118 58 q 139 111 118 90 q 192 132 160 132 q 243 111 222 132 q 265 58 265 89 q 243 6 265 28 q 192 -16 222 -16 q 140 6 161 -16 q 118 58 118 28 m 125 785 q 102 908 102 899 q 129 975 102 952 q 191 997 155 997 q 245 974 226 997 q 265 908 265 950 q 264 824 265 899 q 294 699 263 749 q 258 728 259 705 q 250 427 226 572 q 211 264 234 358 l 203 196 l 178 196 l 129 614 q 95 766 111 743 q 125 785 99 791 z "},"\"":{"ha":460,"x_min":61,"x_max":399,"o":"m 360 616 l 330 586 l 286 896 q 284 907 285 901 q 284 922 284 912 q 299 974 284 956 q 341 991 313 991 q 384 974 369 991 q 399 869 399 956 q 397 846 399 863 q 397 842 397 843 l 360 616 m 137 616 l 107 586 l 62 896 q 61 907 62 901 q 61 922 61 912 q 76 974 61 956 q 118 991 90 991 q 161 974 146 991 q 176 869 176 956 q 174 846 176 863 q 174 842 174 843 l 137 616 z "},"#":{"ha":903,"x_min":50,"x_max":857,"o":"m 414 557 l 356 393 l 502 393 l 561 557 l 414 557 m 438 895 l 535 895 l 438 624 l 583 624 l 680 895 l 775 895 l 680 624 l 857 624 l 833 557 l 655 557 l 597 393 l 789 393 l 764 326 l 574 326 l 458 56 l 382 56 l 477 326 l 332 326 l 216 56 l 141 56 l 237 326 l 50 326 l 75 393 l 260 393 l 318 557 l 117 557 l 142 624 l 342 624 l 438 895 z "},"$":{"ha":705,"x_min":42,"x_max":684,"o":"m 322 24 q 416 11 367 11 q 546 63 494 11 q 597 193 597 115 q 553 309 597 269 q 507 340 534 323 q 417 361 462 355 l 417 3 l 380 3 l 380 367 q 322 370 351 370 l 322 130 q 328 136 326 133 q 322 129 325 132 l 322 24 m 285 708 l 285 946 q 233 912 256 935 q 184 798 184 865 q 250 694 184 753 q 244 768 238 723 q 285 708 264 736 m 322 663 q 380 610 350 633 l 380 959 q 358 960 370 960 q 322 957 339 960 l 322 663 m 285 106 l 285 437 l 295 433 q 268 458 284 444 q 142 557 176 509 q 87 736 87 640 q 163 919 87 845 l 164 920 q 78 965 137 928 q 228 967 160 937 q 285 986 254 979 l 285 1060 l 322 1060 l 322 991 q 355 993 338 993 q 380 992 368 993 l 380 1060 l 417 1060 l 417 989 q 517 960 479 983 q 607 938 574 928 l 616 916 q 669 669 585 784 q 565 761 608 673 q 534 736 557 744 q 547 804 551 772 q 507 905 543 850 q 417 955 480 943 l 417 588 q 439 576 433 578 q 463 564 451 570 q 486 701 456 589 q 555 504 483 566 q 624 439 589 487 q 684 261 684 359 q 605 62 684 144 q 417 -21 528 -19 l 417 -110 l 380 -110 l 380 -19 q 322 -9 354 -16 l 322 -110 l 285 -110 l 285 -1 l 289 -1 q 254 9 272 4 q 50 0 154 39 l 42 18 q 103 90 86 50 q 85 245 119 129 l 110 274 q 176 117 125 177 q 285 106 240 91 m 285 37 l 285 86 q 244 58 260 61 q 285 37 264 46 z "},"%":{"ha":947,"x_min":41,"x_max":884,"o":"m 132 787 l 132 665 q 144 531 132 564 q 190 498 157 498 q 237 533 224 498 q 250 665 250 568 l 250 787 q 237 920 250 885 q 190 955 224 955 q 144 921 157 955 q 132 787 132 886 m 678 419 q 712 332 690 354 q 677 214 690 299 q 690 99 678 129 q 735 66 703 66 q 782 101 768 66 q 795 234 795 136 l 795 357 q 782 491 795 456 q 735 526 768 526 q 690 492 703 526 q 678 419 682 469 m 589 324 q 629 471 597 410 q 735 550 672 550 q 841 470 798 550 q 884 268 884 391 q 841 65 884 146 q 735 -15 798 -15 q 630 65 673 -15 q 602 138 612 98 q 469 108 574 116 q 589 324 571 186 m 450 359 l 298 -12 l 190 -12 l 648 981 l 701 981 l 594 716 l 630 737 l 587 698 q 546 401 526 479 q 450 359 493 401 m 306 515 l 296 494 q 190 414 253 414 q 84 494 127 414 q 41 697 41 574 q 84 900 41 821 q 190 979 127 979 q 296 900 253 979 q 339 697 339 820 q 338 665 339 680 q 378 509 343 557 q 306 515 319 493 z "},"&":{"ha":854,"x_min":69,"x_max":918,"o":"m 491 85 q 397 131 446 136 q 374 307 411 200 q 285 505 326 399 q 281 515 283 510 q 201 446 227 490 q 175 336 175 401 q 242 136 175 222 q 396 50 309 50 q 454 61 427 50 q 491 85 470 68 m 488 737 q 406 732 460 726 q 487 876 500 764 q 477 895 483 886 q 418 926 456 926 q 354 895 380 926 q 329 812 329 863 q 341 724 329 773 q 378 615 353 675 q 467 692 435 642 q 488 737 480 713 m 680 282 q 665 251 672 266 q 607 150 642 206 q 690 19 654 70 q 848 -87 766 -87 q 878 -83 870 -87 q 902 -88 885 -79 q 914 -111 918 -96 q 892 -142 910 -126 q 802 -177 853 -177 q 620 -75 710 -177 q 562 -153 610 -132 q 529 32 593 -73 q 513 57 521 45 q 433 3 470 20 q 330 -18 385 -18 q 192 25 254 -18 q 87 -33 151 -53 q 143 11 127 -33 q 134 79 152 35 q 69 261 69 157 q 120 421 69 349 q 269 547 170 494 q 242 650 250 606 q 233 733 233 694 q 284 891 233 830 q 412 953 334 953 q 491 930 457 953 q 557 1002 496 981 q 552 845 531 951 q 557 803 557 825 q 515 686 557 742 q 390 582 473 631 q 399 560 395 571 q 497 348 451 439 q 587 184 545 256 q 644 288 625 241 q 664 392 664 340 q 641 469 664 439 q 545 490 617 500 l 532 521 q 547 522 540 522 q 585 607 602 525 q 701 544 626 562 q 833 521 777 526 l 819 490 q 758 463 781 495 q 724 395 741 439 q 709 225 699 308 q 680 282 685 249 z "},"'":{"ha":245,"x_min":61,"x_max":176,"o":"m 137 616 l 107 586 l 62 896 q 61 907 62 901 q 61 922 61 912 q 76 974 61 956 q 118 991 90 991 q 161 974 146 991 q 176 869 176 956 q 174 846 176 863 q 174 842 174 843 l 137 616 z "},"(":{"ha":463,"x_min":114,"x_max":421,"o":"m 340 1031 l 421 954 q 282 706 326 848 q 239 353 239 564 q 282 0 239 142 q 421 -249 326 -143 l 421 -292 q 192 -11 271 -175 q 114 353 114 154 q 175 716 114 551 q 340 1031 237 880 z "},")":{"ha":463,"x_min":41,"x_max":349,"o":"m 109 1031 q 286 719 222 886 q 349 353 349 552 q 270 -11 349 154 q 41 -292 192 -175 l 41 -249 q 180 1 136 -142 q 224 353 224 144 q 180 705 224 562 q 41 954 136 848 l 109 1031 z "},"*":{"ha":514,"x_min":55,"x_max":469,"o":"m 280 758 q 340 714 309 734 q 406 636 406 671 q 389 583 406 616 q 349 549 372 549 q 283 685 304 549 q 259 755 276 721 q 241 688 248 722 q 174 549 220 549 q 135 582 151 549 q 118 636 118 614 q 183 713 118 671 q 239 758 214 733 l 226 758 q 177 756 205 758 q 142 754 149 754 q 82 768 109 754 q 55 807 55 783 q 138 835 55 872 q 244 784 222 798 q 222 844 236 812 q 202 907 202 888 q 217 954 202 931 q 258 976 233 976 q 297 954 282 976 q 312 907 312 932 q 293 845 312 888 q 270 778 278 810 q 384 833 298 793 q 469 807 469 873 q 443 768 469 783 q 384 754 416 754 q 349 756 377 754 q 300 758 321 758 l 280 758 z "},"+":{"ha":1157,"x_min":172,"x_max":985,"o":"m 479 347 q 342 301 399 342 q 388 355 345 325 l 172 375 l 172 454 l 539 505 l 526 828 l 619 828 l 619 739 q 648 601 625 675 q 619 512 623 555 l 619 505 l 985 454 l 985 375 l 619 346 l 633 0 l 526 0 l 539 342 l 479 347 z "},",":{"ha":302,"x_min":75,"x_max":270,"o":"m 240 -12 q 224 -68 236 -39 q 213 -132 210 -110 q 161 -162 189 -140 q 154 -168 157 -165 l 151 -170 l 151 -170 q 134 -174 141 -176 q 142 -136 117 -168 q 155 -119 149 -127 q 183 -50 183 -78 q 175 -27 183 -35 q 149 -14 168 -18 q 91 12 106 -4 q 75 57 75 28 q 96 111 75 89 q 147 132 117 132 q 215 98 189 132 q 234 61 228 82 q 256 108 254 71 q 240 -12 270 56 z "},"-":{"ha":983,"x_min":137,"x_max":842,"o":"m 525 336 q 285 301 334 334 q 324 344 286 319 l 137 359 l 137 421 l 456 461 q 525 467 528 500 l 525 461 l 842 421 l 842 359 l 525 336 z "},".":{"ha":302,"x_min":75,"x_max":224,"o":"m 167 130 q 183 125 176 129 q 148 61 144 106 q 210 101 173 96 q 224 58 224 83 q 202 6 224 28 q 150 -16 180 -16 q 97 6 119 -16 q 75 58 75 28 q 97 111 75 89 q 181 146 115 128 q 167 130 173 138 z "},"/":{"ha":501,"x_min":5,"x_max":523,"o":"m 123 -26 l 5 -71 l 454 1031 l 523 1031 l 123 -26 z "},":":{"ha":302,"x_min":75,"x_max":224,"o":"m 167 130 q 183 125 176 129 q 148 61 144 106 q 210 101 173 96 q 224 58 224 83 q 202 6 224 28 q 150 -16 180 -16 q 97 6 119 -16 q 75 58 75 28 q 97 111 75 89 q 181 146 115 128 q 167 130 173 138 m 167 496 q 183 490 176 494 q 148 427 144 471 q 210 467 173 461 q 224 424 224 448 q 202 372 224 393 q 150 350 180 350 q 97 372 119 350 q 75 424 75 394 q 97 476 75 454 q 181 512 115 494 q 167 496 173 504 z "},";":{"ha":302,"x_min":75,"x_max":270,"o":"m 240 -12 q 224 -68 236 -39 q 213 -132 210 -110 q 161 -162 189 -140 q 154 -168 157 -165 l 151 -170 l 151 -170 q 134 -174 141 -176 q 142 -136 117 -168 q 155 -119 149 -127 q 183 -50 183 -78 q 175 -27 183 -35 q 149 -14 168 -18 q 91 12 106 -4 q 75 57 75 28 q 96 111 75 89 q 147 132 117 132 q 215 98 189 132 q 234 61 228 82 q 256 108 254 71 q 240 -12 270 56 m 167 496 q 183 490 176 494 q 148 427 144 471 q 210 467 173 461 q 224 424 224 448 q 202 372 224 393 q 150 350 180 350 q 97 372 119 350 q 75 424 75 394 q 97 476 75 454 q 181 512 115 494 q 167 496 173 504 z "},"<":{"ha":1084,"x_min":172,"x_max":917,"o":"m 917 777 l 917 690 l 293 414 l 917 139 l 917 52 l 172 379 l 172 449 l 917 777 z "},"=":{"ha":1019,"x_min":137,"x_max":882,"o":"m 593 244 l 137 244 l 137 323 q 400 366 292 328 q 541 323 431 334 l 882 323 l 882 244 l 764 244 q 789 183 791 230 q 593 244 763 220 m 882 502 q 319 441 345 478 q 343 502 316 488 l 137 502 l 137 581 l 383 581 q 619 623 494 583 q 882 581 728 585 l 882 502 z "},">":{"ha":1084,"x_min":172,"x_max":917,"o":"m 172 777 l 917 449 l 917 379 l 172 52 l 172 139 l 796 414 l 172 690 l 172 777 z "},"?":{"ha":566,"x_min":33,"x_max":511,"o":"m 233 130 q 250 125 242 129 q 214 61 210 106 q 277 101 239 96 q 290 58 290 83 q 269 6 290 28 q 216 -16 247 -16 q 164 6 186 -16 q 142 58 142 28 q 163 111 142 89 q 248 146 181 128 q 233 130 239 138 m 38 940 q 134 956 79 930 q 157 968 145 963 q 126 979 141 969 q 244 992 185 992 q 261 993 252 993 q 425 926 361 993 q 474 846 458 891 q 424 726 412 793 q 486 824 439 805 q 511 829 496 827 q 479 577 488 811 l 450 612 q 412 558 435 585 q 340 486 388 530 q 275 424 293 444 q 271 343 248 383 q 243 371 249 353 q 241 366 241 368 q 230 310 231 334 q 196 286 229 286 l 196 297 q 206 377 196 343 q 239 441 216 411 q 262 473 247 452 q 326 571 314 542 q 343 632 338 598 q 349 718 349 665 l 349 769 q 298 746 332 745 q 340 870 341 799 q 324 916 334 898 q 243 961 299 961 q 178 941 205 961 q 155 911 161 928 q 157 760 123 854 q 136 747 103 789 q 140 705 168 705 q 79 735 102 705 q 56 814 56 766 l 56 815 l 55 815 q 33 924 52 887 l 38 940 z "},"@":{"ha":1369,"x_min":81,"x_max":1272,"o":"m 509 254 q 536 155 509 191 q 610 118 564 118 q 695 148 654 118 q 774 239 736 178 q 836 376 812 302 q 868 485 848 415 q 900 590 881 528 q 836 618 872 615 q 689 590 745 627 q 639 465 633 552 q 560 405 612 488 q 509 254 509 321 m 651 665 q 739 682 696 682 q 917 646 869 682 q 925 672 921 659 l 1022 672 l 990 558 q 968 284 1054 416 q 977 508 1016 423 q 922 574 954 563 q 970 484 963 536 l 907 258 q 906 255 907 257 q 895 184 895 215 q 912 134 895 153 q 958 115 929 115 q 1012 127 981 115 q 1069 160 1042 139 q 1196 317 1152 221 q 1240 530 1240 412 q 1206 701 1240 625 q 1103 839 1173 777 q 956 922 1042 892 q 775 951 871 951 q 544 912 648 951 q 357 793 439 872 q 296 725 323 761 q 273 547 264 642 q 236 606 242 560 q 234 341 181 474 q 241 90 192 217 q 339 -22 278 30 q 516 -122 416 -88 q 733 -155 616 -155 q 948 -120 844 -155 q 1149 -16 1053 -85 l 1169 -40 q 957 -153 1069 -115 q 725 -191 845 -191 q 493 -159 598 -191 q 307 -65 388 -127 q 163 100 215 4 q 102 22 113 85 q 99 337 81 215 q 98 364 98 351 q 157 623 98 503 q 326 835 215 743 q 524 947 415 909 q 757 985 632 985 q 1132 858 992 985 q 1272 519 1272 731 q 1233 318 1272 413 q 1122 158 1194 223 q 1039 104 1084 123 q 947 85 994 85 q 846 120 882 85 q 807 228 811 156 q 713 120 765 156 q 597 85 661 85 q 461 147 513 85 q 410 313 410 210 q 443 459 410 386 q 526 580 473 526 q 443 646 473 580 q 651 665 494 622 z "},"A":{"ha":786,"x_min":-27,"x_max":810,"o":"m 332 740 l 244 426 q 326 430 277 443 q 244 385 252 422 q 287 347 237 347 l 477 347 q 429 448 468 415 q 436 536 442 463 l 357 831 l 351 809 q 348 716 360 747 q 332 740 345 737 m 502 292 l 496 298 l 216 298 q 193 242 203 271 l 171 161 q 165 130 167 145 q 163 103 163 115 q 186 43 163 67 q 275 45 209 20 l 261 0 l -14 0 l -27 45 q 80 66 43 18 q 142 201 117 114 q 290 979 334 960 q 401 975 344 994 l 450 981 q 465 890 456 930 l 547 601 q 612 479 583 513 q 607 416 599 440 q 679 336 633 339 q 674 151 652 221 q 717 55 696 80 q 810 45 743 23 l 796 0 l 460 0 l 446 45 q 529 41 507 20 q 551 90 551 62 q 549 117 551 103 q 541 154 547 132 l 535 170 q 490 233 517 220 q 417 241 463 245 q 510 263 454 276 q 587 162 565 251 q 503 292 577 264 l 502 292 z "},"B":{"ha":787,"x_min":12,"x_max":729,"o":"m 277 548 l 277 529 l 355 529 q 519 580 471 529 q 568 750 568 631 q 521 899 568 853 q 421 941 486 932 q 393 924 406 933 q 405 943 397 935 q 363 945 385 945 q 293 933 309 945 q 326 815 269 881 q 282 677 287 795 q 298 612 281 634 q 277 547 282 596 l 277 548 m 307 38 q 412 45 336 30 l 409 33 q 532 83 493 42 q 582 264 582 136 q 505 370 582 391 q 353 495 473 491 l 351 495 q 346 496 349 495 l 336 496 q 282 472 294 495 q 280 453 277 462 q 291 448 283 444 q 341 454 313 460 q 277 304 279 407 l 277 135 q 286 58 277 80 q 293 47 289 52 q 307 38 298 41 m 25 0 l 12 45 q 121 97 95 25 l 140 176 q 143 197 137 140 q 94 336 149 278 q 147 479 138 380 l 147 490 q 123 660 147 595 q 142 724 142 690 q 131 780 142 751 q 87 764 113 764 l 75 765 q 121 885 141 814 q 25 931 102 957 l 39 974 l 300 974 q 446 998 412 984 q 482 970 441 980 q 536 962 513 967 q 627 922 587 950 q 692 846 668 892 q 715 750 715 801 q 650 595 715 659 q 621 570 637 581 q 690 585 649 561 q 585 536 665 543 q 581 567 588 553 q 560 514 584 527 q 525 503 536 502 q 551 532 550 518 q 498 516 526 523 l 479 513 q 661 423 596 487 q 729 260 729 356 q 695 139 729 196 q 604 46 662 81 q 508 11 564 22 q 399 1 465 3 l 399 0 l 25 0 z "},"C":{"ha":726,"x_min":47,"x_max":690,"o":"m 568 812 q 564 822 566 817 q 425 962 516 962 q 257 888 302 962 q 318 881 287 892 q 229 775 264 858 q 195 485 195 692 q 211 335 195 411 q 312 235 227 258 q 233 189 277 180 q 275 136 231 169 q 245 133 263 130 q 245 132 245 132 q 404 18 296 18 q 563 92 499 18 q 639 253 627 166 q 642 366 651 340 q 655 398 633 393 q 673 361 677 404 q 584 79 659 180 q 387 -22 508 -22 q 243 19 307 -22 q 194 26 218 29 q 151 75 186 75 q 68 32 123 33 q 109 178 134 71 q 47 486 47 305 q 142 850 47 708 q 195 915 167 888 q 210 970 208 942 q 289 977 241 968 q 417 993 330 993 q 529 956 491 993 q 627 946 568 919 l 637 924 q 690 677 606 792 q 585 769 628 681 q 554 744 578 752 q 568 812 571 780 z "},"D":{"ha":790,"x_min":25,"x_max":754,"o":"m 604 574 q 547 842 596 758 q 404 935 487 942 q 305 911 320 928 q 292 876 295 901 q 358 897 317 903 q 307 826 319 883 q 319 749 294 776 q 290 584 291 692 l 277 131 q 292 50 277 68 q 357 32 307 32 q 549 135 493 32 q 566 172 558 151 q 512 152 547 157 q 610 275 559 182 q 670 446 661 369 q 593 292 632 348 q 595 306 594 298 q 548 437 593 402 q 604 574 609 472 m 659 829 q 698 762 680 798 q 754 501 754 643 q 707 245 754 358 q 636 127 679 178 q 629 13 612 68 q 576 70 588 37 q 572 68 574 69 q 469 16 524 32 q 328 0 414 0 l 39 0 l 25 45 q 125 42 103 18 q 147 113 147 66 q 111 475 153 414 q 134 564 134 492 q 92 692 131 667 q 147 857 143 768 q 126 925 145 897 q 25 928 105 956 l 39 974 l 325 974 q 447 966 396 974 l 448 966 q 604 1013 573 960 q 543 936 598 954 l 549 933 q 574 916 562 926 l 616 900 l 659 829 z "},"E":{"ha":779,"x_min":31,"x_max":743,"o":"m 704 68 q 708 0 704 31 l 51 0 l 37 44 q 130 43 108 24 q 153 111 153 62 q 100 704 127 669 q 132 863 153 732 q 126 874 125 871 q 130 884 127 878 q 130 912 137 897 q 117 931 125 924 q 31 930 94 950 l 44 974 l 291 974 q 457 1016 425 983 q 438 974 453 991 l 709 974 q 701 664 670 875 l 642 650 q 645 920 683 888 q 408 942 606 951 l 411 930 q 319 930 341 950 q 301 903 307 920 q 304 884 300 893 q 308 874 307 878 q 302 863 309 871 q 299 836 298 857 q 321 785 300 814 q 290 646 298 756 q 455 692 435 648 q 478 829 475 737 l 510 816 q 497 671 500 745 q 541 519 500 574 q 499 537 517 526 q 510 429 503 484 l 478 415 q 456 563 475 512 q 336 612 439 605 q 290 614 315 614 l 289 596 q 325 597 307 610 q 285 252 286 574 l 282 111 q 466 31 282 24 q 668 103 650 38 q 686 334 686 168 l 732 347 q 708 168 715 247 q 743 66 709 99 q 704 68 722 53 z "},"F":{"ha":733,"x_min":31,"x_max":709,"o":"m 285 252 l 282 111 q 305 43 282 63 q 404 44 328 24 l 391 0 l 51 0 l 37 44 q 130 43 108 24 q 153 111 153 62 q 100 704 127 669 q 132 863 153 732 q 126 874 125 871 q 130 884 127 878 q 130 912 137 897 q 117 931 125 924 q 31 930 94 950 l 44 974 l 291 974 q 457 1016 425 983 q 438 974 453 991 l 709 974 q 701 664 670 875 l 642 650 q 645 920 683 888 q 408 942 606 951 l 411 930 q 319 930 341 950 q 301 903 307 920 q 304 884 300 893 q 308 874 307 878 q 302 863 309 871 q 299 836 298 857 q 321 785 300 814 q 290 590 298 756 q 455 637 435 592 q 478 749 475 682 l 510 760 q 497 615 500 689 q 541 463 500 518 q 499 481 517 471 q 510 373 503 428 l 478 359 q 456 507 475 456 q 336 557 439 549 q 290 558 315 558 l 289 484 q 325 484 307 498 q 285 252 286 462 z "},"G":{"ha":781,"x_min":47,"x_max":751,"o":"m 269 888 q 330 881 299 891 q 237 775 273 858 q 201 485 201 692 q 217 335 201 411 q 323 235 234 258 q 241 189 287 180 q 285 136 238 169 q 253 133 272 130 q 254 132 254 132 q 359 28 292 52 l 359 17 q 399 12 378 12 q 523 73 481 12 q 557 202 564 134 q 513 276 549 269 q 552 351 549 317 q 548 395 555 385 q 430 405 531 418 l 444 435 l 736 435 l 751 391 q 699 389 705 405 q 680 281 694 374 q 693 -8 667 188 l 661 5 q 641 73 652 52 q 613 94 629 94 q 568 64 598 94 q 547 43 554 50 q 472 -5 513 12 q 385 -21 431 -21 q 278 1 328 -21 l 278 4 q 251 19 264 11 q 200 26 226 29 q 155 75 193 75 q 69 32 126 33 q 112 178 137 71 q 47 486 47 305 q 146 850 47 708 q 201 915 172 888 q 217 970 215 942 q 299 977 250 968 q 433 993 342 993 q 652 946 510 993 l 662 924 q 717 677 629 792 q 608 769 652 681 q 576 744 600 752 q 589 812 593 780 q 586 822 587 817 q 441 962 536 962 q 279 905 329 962 q 160 801 170 892 q 269 888 193 877 z "},"H":{"ha":856,"x_min":18,"x_max":838,"o":"m 582 355 l 578 574 l 541 574 q 553 542 547 560 q 406 574 517 572 l 292 574 l 225 574 q 276 544 261 558 l 269 111 q 292 43 269 63 q 398 44 315 24 l 385 0 l 38 0 l 24 44 q 117 43 95 24 q 140 111 140 62 l 129 676 l 129 675 q 100 785 128 750 q 122 836 121 814 q 119 863 123 857 q 113 874 112 871 q 117 884 115 878 q 117 912 124 897 q 104 931 112 924 q 18 930 81 950 l 31 974 l 391 974 l 405 930 q 305 930 328 950 q 288 903 294 920 q 291 884 287 893 q 295 874 294 878 q 290 863 296 871 q 286 836 285 857 q 308 785 287 814 q 280 699 285 756 l 278 628 l 578 628 l 576 676 l 576 675 q 547 785 575 750 q 569 836 568 814 q 566 863 570 857 q 560 874 559 871 q 564 884 562 878 q 564 912 571 897 q 551 931 559 924 q 451 930 528 950 l 465 974 l 825 974 l 838 930 q 752 930 775 950 q 735 903 741 920 q 738 884 734 893 q 737 849 741 878 q 775 785 734 821 q 727 678 732 743 l 716 111 q 739 43 716 63 q 831 44 762 24 l 818 0 l 471 0 l 458 44 q 564 43 542 24 q 587 111 587 62 l 587 117 l 585 143 q 582 162 586 153 q 581 197 578 168 q 540 261 583 226 q 582 355 577 299 z "},"I":{"ha":436,"x_min":31,"x_max":411,"o":"m 142 676 l 142 675 q 113 785 141 750 q 135 836 134 814 q 132 863 136 857 q 126 874 125 871 q 130 884 127 878 q 130 912 137 897 q 117 931 125 924 q 31 930 94 950 l 44 974 l 397 974 l 411 930 q 319 930 341 950 q 301 903 307 920 q 304 884 300 893 q 308 874 307 878 q 302 863 309 871 q 299 836 298 857 q 321 785 300 814 q 293 699 298 756 l 282 111 q 305 43 282 63 q 404 44 328 24 l 391 0 l 51 0 l 37 44 q 130 43 108 24 q 153 111 153 62 l 142 676 z "},"J":{"ha":642,"x_min":18,"x_max":626,"o":"m 92 121 q 130 41 93 73 q 225 8 167 8 q 333 58 301 8 q 366 239 366 109 l 361 400 q 317 559 349 511 q 357 529 341 554 l 357 530 q 328 640 356 605 q 350 753 349 670 q 347 843 351 837 q 341 854 340 850 q 345 864 342 858 q 345 892 352 877 q 332 911 340 903 q 245 930 309 930 l 259 974 l 612 974 l 626 930 q 533 930 556 950 q 516 903 522 920 q 519 884 514 893 q 523 874 522 878 q 517 863 524 871 q 514 836 513 857 q 536 785 515 814 q 508 699 512 756 l 504 474 q 541 282 505 338 q 495 277 511 271 l 494 259 q 486 175 492 206 q 458 96 477 131 q 370 9 428 41 q 243 -22 313 -22 q 81 37 144 -22 q 58 63 68 50 q 54 2 46 51 q 27 125 28 68 q 18 189 18 155 q 50 291 18 252 q 79 289 71 315 l 80 290 q 122 207 94 231 q 92 121 94 161 z "},"K":{"ha":839,"x_min":31,"x_max":859,"o":"m 287 416 l 282 111 q 305 43 282 63 q 411 44 328 24 l 397 0 l 51 0 l 37 44 q 130 43 108 24 q 153 111 153 62 l 142 676 l 142 675 q 113 785 141 750 q 135 836 134 814 q 132 863 136 857 q 126 874 125 871 q 130 884 127 878 q 130 912 137 897 q 117 931 125 924 q 31 930 94 950 l 44 974 l 404 974 l 418 930 q 319 930 341 950 q 301 903 307 920 q 304 884 300 893 q 308 874 307 878 q 302 863 309 871 q 299 836 298 857 q 321 785 300 814 q 293 699 298 756 l 290 568 q 260 549 277 556 q 290 557 271 549 q 340 600 321 570 q 288 477 321 544 l 288 477 l 571 835 q 591 866 584 850 q 597 896 597 882 q 581 935 597 919 q 495 930 564 950 l 509 974 l 807 974 l 821 930 q 715 924 755 950 q 666 882 692 909 q 707 882 686 885 q 566 762 646 851 l 469 642 l 631 298 q 656 336 629 323 q 729 89 642 248 q 773 40 745 56 q 859 45 802 25 l 846 0 l 599 0 q 589 109 637 20 l 431 389 q 384 352 426 362 q 362 510 408 387 l 287 416 z "},"L":{"ha":733,"x_min":31,"x_max":709,"o":"m 289 605 q 321 190 298 219 q 299 140 300 161 q 302 112 298 118 q 308 101 309 104 q 304 91 307 97 q 301 72 300 82 q 319 45 307 55 q 411 45 341 25 l 408 33 q 645 56 606 24 q 642 325 683 87 l 701 311 q 709 1 670 100 l 438 1 q 457 -41 453 -16 q 291 1 425 -7 l 44 1 l 31 45 q 117 44 94 25 q 130 63 125 52 q 130 91 137 78 q 126 101 127 97 q 132 112 125 104 q 100 271 153 243 q 153 864 127 307 q 130 932 153 913 q 37 931 108 951 l 51 975 l 391 975 l 404 931 q 305 932 328 951 q 281 817 282 912 q 325 604 280 722 l 289 605 z "},"M":{"ha":947,"x_min":20,"x_max":924,"o":"m 374 183 q 219 641 265 629 q 189 885 243 770 l 189 201 q 211 65 189 98 q 323 45 233 32 l 310 0 l 33 0 l 20 45 q 123 69 98 32 q 147 207 147 106 l 147 844 q 127 922 147 888 q 33 930 108 957 l 47 974 l 232 974 q 234 973 233 974 q 400 812 332 962 q 355 834 376 833 l 471 262 l 620 894 q 597 1004 632 969 q 731 974 637 980 l 897 974 l 910 930 q 854 941 877 944 q 832 806 813 935 q 804 665 816 795 q 812 495 806 589 q 881 542 826 511 q 800 113 808 387 q 816 48 800 64 q 924 45 832 32 l 910 0 l 557 0 l 543 45 q 660 48 644 32 q 676 113 676 64 l 676 315 q 644 426 667 372 q 676 618 672 497 l 676 673 q 621 646 663 643 q 670 911 677 713 l 562 465 q 589 371 561 406 q 541 375 558 364 l 450 0 l 448 0 q 320 -79 414 -100 q 374 183 402 -34 z "},"N":{"ha":827,"x_min":25,"x_max":821,"o":"m 136 915 q 132 927 134 922 q 28 923 116 957 l 41 974 l 204 974 q 251 974 230 975 l 267 974 l 267 972 q 351 920 339 964 q 340 842 308 901 q 404 802 376 837 q 359 812 374 817 q 427 741 393 764 q 476 589 437 665 l 654 262 l 654 786 q 629 916 654 878 q 533 923 604 954 l 547 974 l 807 974 l 821 923 q 724 916 750 955 q 703 861 709 896 q 753 897 720 896 q 697 597 698 833 l 697 -7 l 644 -45 l 517 261 q 315 465 412 416 q 401 453 364 471 l 330 547 l 316 610 q 238 663 281 663 q 191 854 226 764 l 191 587 q 201 397 189 498 q 269 408 214 404 q 204 210 205 374 q 222 76 204 132 q 311 52 240 20 l 298 0 l 39 0 l 25 52 q 123 58 98 20 q 147 204 147 96 l 147 802 q 106 779 132 780 q 136 915 150 825 z "},"O":{"ha":790,"x_min":45,"x_max":774,"o":"m 286 914 q 253 850 266 888 q 214 488 214 734 l 214 475 q 251 365 222 400 q 229 229 228 292 q 253 125 238 169 q 396 9 292 9 q 549 125 500 9 q 583 254 571 177 q 542 338 581 304 q 599 486 585 387 l 599 488 q 550 850 599 734 q 528 892 540 873 q 490 859 521 867 q 466 945 497 933 q 381 927 396 974 q 286 914 325 949 m 47 411 q 45 488 45 448 q 143 856 45 714 q 395 997 242 997 q 647 855 547 997 q 680 800 665 829 q 688 861 686 825 q 711 724 708 812 q 746 488 746 621 q 722 288 746 378 q 774 200 760 269 q 705 233 751 237 q 646 120 682 171 q 395 -22 547 -22 q 144 119 242 -22 q 115 166 127 142 q 133 19 106 80 q 47 411 54 122 z "},"P":{"ha":739,"x_min":12,"x_max":715,"o":"m 278 438 l 355 438 q 519 489 471 438 q 568 696 568 541 q 562 796 568 753 q 519 741 555 757 q 486 923 536 892 q 446 932 467 932 q 393 924 406 933 q 405 943 397 935 q 363 945 385 945 q 294 934 311 945 q 319 812 277 907 q 290 665 283 811 q 302 609 292 623 q 278 438 279 536 m 141 182 l 140 176 q 141 182 141 178 m 339 405 q 282 381 295 405 q 280 362 277 371 q 291 357 283 353 q 341 363 313 369 q 277 196 274 312 l 277 113 q 295 44 277 64 q 412 45 314 25 l 399 0 l 25 0 l 12 45 q 121 97 95 25 l 140 176 q 143 197 137 140 q 94 336 149 278 q 147 479 138 380 l 147 490 q 123 660 147 595 q 142 724 142 690 q 131 780 142 751 q 87 764 113 764 l 75 765 q 141 894 141 814 l 141 895 q 125 927 136 919 q 25 931 102 943 l 39 974 l 300 974 q 446 998 412 984 q 482 970 441 980 q 536 962 513 967 q 627 922 587 950 q 692 846 668 892 q 715 696 715 801 q 650 505 715 568 q 621 479 637 490 q 690 494 649 470 q 585 445 665 452 q 581 476 588 462 q 560 424 584 436 q 525 412 536 411 q 551 441 550 427 q 471 419 514 427 q 339 405 428 410 z "},"Q":{"ha":790,"x_min":45,"x_max":798,"o":"m 286 914 q 253 850 266 888 q 214 488 214 734 l 214 475 q 251 365 222 400 q 229 229 228 292 q 253 125 238 169 q 396 9 292 9 q 549 125 500 9 q 583 254 571 177 q 542 338 581 304 q 599 486 585 387 l 599 488 q 550 850 599 734 q 528 892 540 873 q 490 859 521 867 q 466 945 497 933 q 381 927 396 974 q 286 914 325 949 m 180 17 q 153 58 168 20 q 203 51 176 57 q 144 119 172 79 q 115 166 127 142 q 133 19 106 80 q 47 411 54 122 q 45 488 45 448 q 143 856 45 714 q 395 997 242 997 q 647 855 547 997 q 680 800 665 829 q 688 861 686 825 q 711 724 708 812 q 746 488 746 621 q 722 288 746 378 q 774 200 760 269 q 705 233 751 237 q 646 120 682 171 q 403 -22 549 -19 q 577 -83 505 -64 q 663 -96 623 -96 q 717 -90 690 -96 q 786 -69 743 -85 q 753 -129 798 -103 l 747 -133 q 700 -193 712 -160 q 704 -157 694 -174 q 670 -174 685 -167 q 618 -185 642 -185 q 564 -176 595 -185 q 475 -136 520 -162 q 360 -62 449 -122 q 341 -50 348 -54 q 340 -75 332 -50 q 257 -5 310 -27 q 164 -4 205 17 q 180 17 170 12 z "},"R":{"ha":764,"x_min":12,"x_max":739,"o":"m 421 941 q 325 816 406 933 q 330 928 353 912 q 291 932 306 945 q 277 868 277 919 l 277 529 l 355 529 q 519 580 471 529 q 568 750 568 631 q 521 899 568 853 q 421 941 486 932 m 649 258 q 652 220 650 239 q 652 201 652 214 q 714 -16 665 -16 q 736 -35 739 -16 q 668 -54 732 -54 q 586 -11 627 -54 q 524 74 545 33 q 511 111 517 89 q 422 290 424 176 q 485 216 448 233 q 552 200 522 199 q 494 222 510 205 q 490 286 492 252 q 460 428 489 363 q 339 496 431 492 q 282 472 295 496 q 280 453 277 462 q 291 448 283 444 q 385 454 313 460 q 277 113 274 403 q 295 44 277 64 q 392 45 314 25 l 378 0 l 25 0 l 12 45 q 121 97 95 25 q 139 263 137 140 q 94 404 140 387 q 147 547 138 448 l 147 558 q 123 660 147 595 q 142 724 142 690 q 131 780 142 751 q 87 764 113 764 l 75 765 q 131 870 125 822 q 125 927 136 919 q 25 931 102 943 l 39 974 l 300 974 q 446 998 412 984 q 482 970 441 980 q 536 962 513 967 q 627 922 587 950 q 692 846 668 892 q 715 750 715 801 q 650 595 715 659 q 621 570 637 581 q 593 545 604 557 q 581 567 596 562 q 573 517 592 536 q 527 492 554 497 q 524 522 547 512 q 471 510 514 518 q 604 409 562 475 q 625 366 615 390 q 722 406 657 401 q 649 258 666 353 z "},"S":{"ha":728,"x_min":42,"x_max":684,"o":"m 244 58 q 416 11 322 11 q 546 63 494 11 q 597 193 597 115 q 553 309 597 269 q 507 340 534 323 q 295 370 399 374 q 268 458 347 392 q 142 557 176 509 q 87 736 87 640 q 163 919 87 845 l 164 920 q 78 965 137 928 q 228 967 160 937 q 355 993 283 993 q 517 960 461 993 q 607 938 574 928 l 616 916 q 669 669 585 784 q 565 761 608 673 q 534 736 557 744 q 547 804 551 772 q 506 905 543 850 q 358 960 469 960 q 233 912 281 960 q 184 798 184 865 q 250 694 184 753 q 244 768 238 723 q 385 607 306 665 q 439 576 427 581 q 463 564 451 570 q 486 701 456 589 q 555 504 483 566 q 624 439 589 487 q 684 261 684 359 q 605 61 684 144 q 411 -21 526 -21 q 254 9 355 -21 q 50 0 154 39 l 42 18 q 103 90 86 50 q 85 245 119 129 l 110 274 q 176 117 125 177 q 328 136 275 77 q 244 58 271 63 z "},"T":{"ha":733,"x_min":35,"x_max":708,"o":"m 449 82 q 447 70 449 82 q 459 48 446 58 q 568 52 481 32 l 554 0 l 189 0 l 175 52 q 284 48 261 32 q 307 113 307 64 q 251 713 307 306 q 292 861 292 782 q 276 890 292 876 q 297 925 307 905 q 264 940 288 940 q 133 899 179 940 q 58 746 87 859 l 35 766 l 57 994 q 394 969 218 966 q 686 994 570 972 l 708 766 l 684 746 q 609 899 655 859 q 479 940 564 940 q 450 930 460 940 q 469 895 437 894 q 454 850 454 864 q 495 715 454 770 q 436 365 439 519 l 436 121 q 486 135 454 132 q 449 82 452 105 z "},"U":{"ha":823,"x_min":11,"x_max":810,"o":"m 279 121 q 304 75 290 94 q 449 20 348 20 q 603 77 557 20 q 648 290 648 135 q 637 470 648 395 q 576 572 626 545 q 648 536 625 572 l 648 777 q 620 914 648 875 q 529 923 591 953 l 543 974 l 796 974 l 810 923 q 718 913 745 951 q 690 775 690 875 l 690 288 q 629 49 690 120 q 427 -22 567 -22 q 272 8 335 -22 q 171 102 208 39 q 142 181 151 136 q 134 323 134 226 l 134 523 q 107 582 127 568 q 127 635 124 594 q 94 798 134 764 q 125 876 122 838 q 96 882 115 871 q 117 926 127 903 q 111 934 114 930 q 11 923 88 957 l 24 974 l 370 974 l 383 923 q 284 934 307 957 q 261 863 261 911 l 261 271 q 340 158 273 183 q 278 159 309 148 q 219 229 237 175 q 279 121 228 155 z "},"V":{"ha":762,"x_min":-7,"x_max":799,"o":"m 627 873 q 603 933 627 909 q 526 943 580 957 l 540 974 l 785 974 l 799 943 q 721 921 755 956 q 701 762 677 876 q 663 822 669 791 q 653 791 658 807 l 416 -17 l 349 -17 q 261 220 323 116 q 189 391 198 324 q 230 360 212 370 q 221 448 248 351 l 198 532 q 105 709 149 673 q 64 928 110 875 q -7 943 37 953 l 7 974 l 325 974 l 338 943 q 270 935 285 957 q 256 896 258 918 q 329 774 267 815 q 281 769 299 760 q 331 650 299 714 q 369 391 332 578 l 427 154 l 535 533 q 549 692 549 608 q 627 873 616 785 z "},"W":{"ha":1036,"x_min":-24,"x_max":1095,"o":"m 526 416 l 399 -17 l 332 -17 q 244 220 307 116 q 172 391 181 324 q 213 360 195 370 q 204 448 231 351 l 181 532 q 88 709 132 673 q 47 928 93 875 q -24 943 20 953 l -10 974 l 308 974 l 321 943 q 253 935 268 957 q 239 896 241 918 q 312 774 250 815 q 264 769 282 760 q 314 650 282 714 q 352 391 315 578 l 410 154 l 518 533 q 532 692 532 608 q 610 873 599 785 q 586 933 610 909 q 509 943 563 957 l 523 974 l 768 974 l 782 943 q 704 921 739 956 q 684 762 660 876 q 646 822 652 791 q 636 791 641 807 l 617 727 q 627 650 618 666 q 665 391 628 578 l 722 154 l 831 533 q 844 692 844 608 q 922 873 911 785 q 899 933 922 909 q 822 943 876 957 l 836 974 l 1081 974 l 1095 943 q 1017 921 1051 956 q 997 762 972 876 q 959 822 964 791 q 949 791 954 807 l 712 -17 l 644 -17 q 592 153 619 116 q 555 256 564 189 q 596 226 578 235 q 526 416 608 219 z "},"X":{"ha":785,"x_min":-36,"x_max":799,"o":"m 341 491 l 342 494 q 151 757 229 732 q 150 892 159 867 q 117 933 140 918 q 11 923 83 957 l 24 974 l 384 974 l 397 930 q 319 941 338 957 q 301 906 302 926 q 381 766 310 836 q 418 629 376 728 l 525 832 q 542 870 537 854 q 547 897 547 885 q 524 939 547 922 q 449 930 500 957 l 463 974 l 741 974 l 754 930 q 644 927 683 957 q 572 836 605 897 l 467 639 q 521 651 490 649 q 456 545 444 600 l 647 142 q 706 43 682 67 q 799 45 730 18 l 785 0 l 429 0 l 415 45 q 516 35 500 18 q 533 72 533 51 q 530 92 533 81 q 521 117 527 103 l 452 267 q 406 198 444 229 q 375 417 431 270 q 363 448 369 433 l 215 154 q 200 116 205 134 q 195 85 195 98 q 214 39 195 60 q 304 45 234 18 l 291 0 l -22 0 l -36 45 q 83 47 39 23 q 136 200 133 88 q 243 299 165 155 l 250 312 q 297 455 305 429 q 341 491 326 470 z "},"Y":{"ha":714,"x_min":-7,"x_max":749,"o":"m 586 786 l 582 778 l 465 605 q 459 446 422 498 q 433 239 441 389 l 431 113 q 457 41 431 64 q 559 45 483 18 l 546 0 l 199 0 l 186 45 q 290 41 264 18 q 313 83 307 56 q 275 374 317 161 q 306 447 304 395 q 286 485 302 469 q 307 558 305 522 l 304 555 q 249 519 279 524 q 189 677 288 603 q 136 802 180 718 q 28 914 85 905 q 71 918 46 924 q 60 933 64 926 q -7 943 41 957 l 7 974 l 277 974 l 290 943 q 239 942 254 957 q 225 905 225 926 q 226 899 225 902 q 267 861 233 867 q 416 609 268 823 l 550 807 q 563 849 558 828 q 567 886 567 870 q 548 936 567 916 q 486 943 530 957 l 500 974 l 735 974 l 749 943 q 661 912 690 954 q 632 869 648 895 q 620 746 602 804 q 586 786 594 758 z "},"Z":{"ha":696,"x_min":28,"x_max":661,"o":"m 368 32 l 395 32 q 594 102 571 32 q 602 286 616 172 l 649 299 q 661 -29 629 53 q 28 0 390 16 l 28 32 l 110 186 q 271 642 277 511 q 433 803 361 644 q 451 890 458 854 q 511 943 494 915 l 249 943 q 118 892 138 943 q 127 763 98 841 l 78 739 q 75 922 95 850 q 76 937 74 930 q 41 1011 73 981 q 189 974 128 979 l 634 974 l 656 975 q 650 951 652 962 l 650 949 l 649 947 q 652 812 629 860 q 599 852 604 822 q 589 773 587 814 q 535 724 552 760 q 515 557 503 652 q 305 300 410 511 l 163 32 l 307 32 q 311 74 302 46 q 368 32 330 39 z "},"[":{"ha":463,"x_min":147,"x_max":446,"o":"m 339 976 q 250 963 261 976 q 238 903 238 951 l 265 -100 q 277 -161 265 -148 q 336 -174 290 -174 l 446 -170 l 446 -202 l 147 -233 l 147 1067 l 359 1067 q 446 976 446 1067 l 339 976 z "},"\\":{"ha":501,"x_min":4,"x_max":498,"o":"m 431 -41 l 4 1010 l 92 1010 l 498 -41 l 431 -41 z "},"]":{"ha":463,"x_min":18,"x_max":316,"o":"m 124 972 l 18 972 q 104 1064 18 1064 l 316 1064 l 316 -237 l 18 -205 l 18 -174 l 127 -177 q 186 -164 174 -177 q 198 -104 198 -151 l 225 900 q 214 960 225 947 q 124 972 202 972 z "},"^":{"ha":1221,"x_min":223,"x_max":1010,"o":"m 536 991 l 698 991 l 1010 608 l 947 608 q 617 882 793 812 q 284 608 441 813 l 223 608 l 536 991 z "},"_":{"ha":694,"x_min":0,"x_max":694,"o":"m 0 -248 l 694 -248 l 694 -328 l 0 -328 l 0 -248 z "},"`":{"ha":694,"x_min":171,"x_max":406,"o":"m 194 935 q 215 1018 171 1018 q 244 1011 233 1018 q 272 983 256 1004 l 406 812 l 364 812 l 194 935 z "},"a":{"ha":689,"x_min":-27,"x_max":722,"o":"m 294 663 l 216 381 q 290 385 245 397 q 216 345 223 378 q 254 311 209 311 l 425 311 q 382 401 416 372 q 388 480 393 415 l 317 744 l 311 724 q 309 642 319 669 q 294 663 306 660 m 446 262 l 441 267 l 191 267 q 170 217 179 243 l 150 144 q 145 116 146 130 q 143 92 143 102 q 164 39 143 60 q 243 41 184 18 l 231 0 l -15 0 l -27 41 q 69 59 36 16 q 124 180 102 102 q 256 877 296 860 q 357 873 305 890 l 400 878 q 414 798 406 833 l 487 538 q 545 429 519 460 q 541 372 534 394 q 605 300 564 304 q 601 135 581 198 q 639 50 621 72 q 722 41 662 20 l 710 0 l 409 0 l 397 41 q 471 36 451 18 q 491 81 491 55 q 489 105 491 92 q 481 138 487 118 l 476 152 q 436 209 460 197 q 371 216 412 220 q 453 236 404 248 q 523 145 503 224 q 447 262 514 236 l 446 262 z "},"b":{"ha":705,"x_min":12,"x_max":660,"o":"m 251 495 l 251 478 l 322 478 q 471 524 427 478 q 515 677 515 570 q 472 812 515 771 q 382 850 440 842 q 357 835 368 843 q 367 852 360 845 q 329 854 349 854 q 266 843 280 854 q 296 736 244 796 q 256 612 260 718 q 271 553 255 573 q 252 494 256 538 l 251 495 m 279 35 q 374 41 304 27 l 370 30 q 482 75 447 38 q 527 238 527 123 q 458 334 527 353 q 319 448 429 444 l 318 448 q 313 448 316 448 l 304 448 q 256 427 267 448 q 254 409 251 417 q 264 405 257 401 q 309 410 283 416 q 251 275 254 368 l 251 122 q 260 52 251 73 q 266 42 262 47 q 279 35 271 37 m 24 0 l 12 41 q 111 87 87 22 l 128 159 q 130 178 125 126 q 86 304 136 251 q 134 433 126 344 l 134 443 q 112 596 134 537 q 129 654 129 623 q 119 705 129 678 q 79 690 104 690 l 69 691 q 111 800 129 735 q 24 842 93 865 l 36 880 l 273 880 q 404 902 373 889 q 437 876 399 886 q 485 869 465 873 q 568 833 532 859 q 626 765 605 806 q 648 677 648 724 q 589 538 648 595 q 562 515 576 525 q 625 529 587 507 q 529 484 602 491 q 526 512 532 499 q 507 465 529 476 q 475 454 485 454 q 498 481 498 468 q 451 467 476 473 l 434 464 q 599 382 540 440 q 660 235 660 321 q 629 125 660 177 q 547 41 599 73 q 460 9 510 20 q 361 1 421 3 l 361 0 l 24 0 z "},"c":{"ha":654,"x_min":47,"x_max":621,"o":"m 511 722 q 509 730 509 726 q 385 856 465 856 q 235 789 275 856 q 289 783 261 793 q 210 689 240 763 q 179 430 179 614 q 193 296 179 364 q 283 207 207 228 q 213 166 252 158 q 251 119 211 148 q 224 116 240 113 q 224 115 224 115 q 366 14 269 14 q 507 80 450 14 q 575 223 564 146 q 578 324 586 300 q 590 353 570 348 q 606 319 609 357 q 526 68 593 159 q 351 -22 458 -22 q 222 14 279 -22 q 178 21 200 24 q 140 64 172 64 q 66 26 115 27 q 102 157 124 61 q 47 431 47 270 q 132 756 47 629 q 179 813 154 789 q 193 863 191 838 q 262 869 220 861 q 377 883 300 883 q 477 850 443 883 q 564 841 511 817 l 573 821 q 621 602 545 704 q 527 684 565 605 q 499 661 520 668 q 511 722 514 693 z "},"d":{"ha":689,"x_min":25,"x_max":686,"o":"m 549 520 q 497 762 543 686 q 368 847 444 853 q 279 825 292 841 q 267 793 269 816 q 327 812 290 818 q 281 748 292 800 q 291 678 269 703 q 265 529 266 627 l 253 119 q 267 45 253 62 q 326 29 281 29 q 500 122 449 29 q 515 155 508 137 q 466 138 497 142 q 555 250 509 165 q 609 404 601 334 q 540 264 575 315 q 541 277 541 271 q 498 396 539 364 q 549 520 553 427 m 599 751 q 634 690 618 723 q 686 454 686 583 q 643 222 686 324 q 578 115 617 161 q 572 12 557 62 q 524 63 535 33 q 521 62 522 62 q 428 15 477 29 q 299 0 378 0 l 37 0 l 25 41 q 116 38 96 16 q 136 102 136 60 q 103 431 141 374 q 123 511 124 446 q 85 627 121 604 q 136 776 132 696 q 117 838 134 812 q 25 841 98 865 l 37 882 l 296 882 q 407 876 361 882 l 408 876 q 549 918 522 869 q 494 848 544 863 l 499 845 q 523 829 511 838 l 560 815 l 599 751 z "},"e":{"ha":680,"x_min":31,"x_max":677,"o":"m 641 62 q 645 0 641 28 l 49 0 l 37 40 q 121 39 100 22 q 141 101 141 56 q 93 638 119 606 q 123 783 142 664 q 117 793 116 789 q 121 802 119 796 q 121 827 127 813 q 109 844 116 838 q 31 843 88 861 l 43 883 l 267 883 q 417 921 389 891 q 400 883 414 898 l 646 883 q 639 602 610 793 l 585 589 q 587 834 622 805 q 372 854 553 863 l 376 843 q 292 844 312 861 q 276 819 281 834 q 278 802 275 810 q 282 793 281 796 q 277 783 283 789 q 274 758 273 777 q 294 712 275 738 q 265 585 273 686 q 416 628 397 587 q 436 752 434 668 l 465 740 q 454 608 456 675 q 494 471 456 520 q 455 487 472 477 q 465 389 458 438 l 436 376 q 416 510 434 464 q 308 555 401 549 q 265 556 288 556 l 264 541 q 297 541 281 553 q 261 229 262 521 l 258 101 q 425 28 258 22 q 609 93 592 35 q 625 302 625 152 l 666 315 q 644 152 650 224 q 677 60 646 90 q 641 62 657 47 z "},"f":{"ha":656,"x_min":31,"x_max":646,"o":"m 261 229 l 258 101 q 279 39 258 57 q 370 40 300 22 l 357 0 l 49 0 l 37 40 q 121 39 100 22 q 141 101 141 56 q 93 638 119 606 q 123 783 142 664 q 117 793 116 789 q 121 802 119 796 q 121 827 127 813 q 109 844 116 838 q 31 843 88 861 l 43 883 l 267 883 q 417 921 389 891 q 400 883 414 898 l 646 883 q 639 602 610 793 l 585 589 q 587 834 622 805 q 372 854 553 863 l 376 843 q 292 844 312 861 q 276 819 281 834 q 278 802 275 810 q 282 793 281 796 q 277 783 283 789 q 274 758 273 777 q 294 712 275 738 q 265 535 273 686 q 416 577 397 536 q 436 680 434 618 l 465 689 q 454 557 456 625 q 494 420 456 470 q 455 437 472 427 q 465 338 458 388 l 436 326 q 416 460 434 414 q 308 505 401 498 q 265 506 288 506 l 265 438 q 297 439 281 451 q 261 229 262 418 z "},"g":{"ha":702,"x_min":47,"x_max":675,"o":"m 245 789 q 299 783 271 792 q 216 689 248 763 q 184 430 184 614 q 199 296 184 364 q 293 207 214 228 q 220 166 261 158 q 259 119 218 149 q 231 116 248 113 q 231 115 231 116 q 325 22 265 43 l 325 13 q 361 9 342 9 q 471 63 434 9 q 502 178 508 117 q 463 244 495 238 q 497 310 495 280 q 494 350 500 340 q 389 359 479 371 l 401 386 l 662 386 l 675 347 q 629 345 633 359 q 611 249 623 332 q 623 -9 600 165 l 595 3 q 576 63 587 43 q 551 82 566 82 q 512 55 538 82 q 493 37 499 43 q 426 -6 462 8 q 348 -21 389 -21 q 253 -1 298 -21 l 253 1 q 229 15 241 7 q 184 21 206 24 q 144 65 177 64 q 67 26 117 27 q 105 157 127 61 q 47 431 47 270 q 136 756 47 629 q 184 813 159 789 q 199 863 197 838 q 272 869 228 861 q 391 883 311 883 q 587 841 460 883 l 595 821 q 644 602 566 704 q 547 684 587 605 q 518 661 541 668 q 531 722 534 693 q 528 730 529 726 q 399 856 483 856 q 254 804 298 856 q 148 712 157 793 q 245 789 178 779 z "},"h":{"ha":775,"x_min":18,"x_max":762,"o":"m 529 322 l 526 520 l 492 520 q 503 491 497 508 q 370 520 470 519 l 266 520 l 205 521 q 252 493 239 506 l 245 101 q 266 39 245 57 q 363 40 287 22 l 351 0 l 36 0 l 24 40 q 108 39 87 22 q 128 101 128 56 l 119 613 l 119 612 q 93 712 118 680 q 113 758 112 738 q 110 783 113 777 q 104 793 103 789 q 108 802 106 796 q 108 827 114 814 q 96 844 103 838 q 18 843 75 861 l 30 883 l 357 883 l 369 843 q 278 844 299 861 q 263 819 269 834 q 265 802 262 810 q 269 793 268 796 q 264 783 271 789 q 261 758 260 777 q 281 712 262 738 q 256 633 260 686 l 254 570 l 526 570 l 524 613 l 524 612 q 498 712 523 680 q 518 758 517 738 q 515 783 519 777 q 510 793 509 789 q 513 802 511 796 q 513 827 519 814 q 501 844 509 838 q 410 843 481 861 l 423 883 l 749 883 l 762 843 q 684 844 705 861 q 668 819 673 834 q 671 802 667 810 q 670 770 673 796 q 705 712 667 744 q 661 615 665 673 l 651 101 q 672 39 651 57 q 755 40 692 22 l 743 0 l 429 0 l 416 40 q 513 39 493 22 q 534 101 534 56 l 534 106 l 532 130 q 529 147 533 139 q 528 179 526 153 q 491 237 530 205 q 529 322 525 271 z "},"i":{"ha":391,"x_min":31,"x_max":376,"o":"m 132 614 l 132 614 q 106 714 131 682 q 126 760 125 740 q 123 785 127 780 q 117 795 116 792 q 121 804 119 799 q 121 829 127 816 q 109 846 117 840 q 31 846 88 864 l 43 886 l 364 886 l 376 846 q 292 846 313 864 q 277 821 282 837 q 279 804 275 812 q 283 795 281 799 q 278 785 284 792 q 274 760 273 780 q 294 714 275 740 q 269 635 273 688 l 259 101 q 280 40 259 58 q 370 40 300 22 l 358 0 l 49 0 l 37 40 q 121 39 101 22 q 142 101 142 57 l 132 614 z "},"j":{"ha":587,"x_min":18,"x_max":570,"o":"m 85 108 q 119 35 86 64 q 206 5 153 5 q 304 51 275 5 q 334 215 334 96 l 330 361 q 290 507 319 462 q 326 479 312 501 l 326 480 q 300 580 326 548 q 320 683 319 607 q 317 764 321 758 q 312 774 311 771 q 315 783 313 778 q 315 808 321 795 q 303 825 311 819 q 224 843 283 843 l 237 883 l 558 883 l 570 843 q 486 844 507 861 q 471 819 475 834 q 473 802 469 810 q 477 793 475 796 q 472 783 478 789 q 469 758 468 777 q 488 711 469 738 q 463 633 467 685 l 460 429 q 493 254 461 305 q 452 250 467 245 l 450 233 q 444 157 448 185 q 418 85 435 117 q 338 6 391 35 q 222 -22 286 -22 q 76 32 133 -22 q 54 56 64 43 q 51 0 43 44 q 26 112 27 60 q 18 170 18 139 q 47 262 18 227 q 74 260 66 285 l 75 262 q 113 186 87 208 q 85 108 87 144 z "},"k":{"ha":762,"x_min":31,"x_max":782,"o":"m 266 505 q 311 544 294 517 q 264 433 294 493 l 258 101 q 279 39 258 57 q 376 40 300 22 l 363 0 l 49 0 l 37 40 q 121 39 100 22 q 141 101 141 56 l 132 613 l 132 612 q 106 712 131 680 q 125 758 125 738 q 123 783 126 777 q 117 793 116 789 q 121 802 119 796 q 121 827 127 814 q 109 844 116 838 q 31 843 88 861 l 43 883 l 370 883 l 382 843 q 292 844 312 861 q 276 819 281 834 q 278 802 275 810 q 282 793 281 796 q 277 783 283 789 q 274 758 273 777 q 294 712 275 738 q 269 633 273 686 l 267 515 q 238 498 254 504 q 266 505 249 498 m 393 352 q 351 319 389 328 q 331 463 372 351 l 254 366 l 254 360 l 218 389 l 254 425 l 254 419 l 521 757 q 538 785 532 771 q 545 812 545 800 q 530 847 545 833 q 452 843 515 861 l 464 883 l 734 883 l 747 843 q 652 838 687 861 q 607 800 631 825 q 644 800 625 802 q 516 691 589 772 l 429 583 l 574 271 q 598 304 573 293 q 664 81 585 224 q 704 37 678 50 q 782 41 730 23 l 770 0 l 546 0 q 536 98 581 18 l 393 352 z "},"l":{"ha":667,"x_min":31,"x_max":648,"o":"m 265 547 q 294 169 273 195 q 274 123 275 143 q 278 98 273 104 q 283 88 284 92 q 279 79 281 85 q 277 62 275 71 q 292 37 282 46 q 376 37 313 19 l 374 26 q 589 47 554 18 q 587 292 624 76 l 640 279 q 648 -3 612 87 l 401 -3 q 418 -41 414 -18 q 267 -3 389 -10 l 43 -3 l 31 37 q 109 37 88 19 q 121 54 116 43 q 121 79 127 67 q 117 88 119 85 q 123 98 116 92 q 94 243 142 217 q 142 782 119 275 q 121 844 142 826 q 37 843 101 861 l 49 883 l 358 883 l 370 843 q 280 843 300 861 q 258 739 259 825 q 298 546 258 652 l 265 547 z "},"m":{"ha":852,"x_min":20,"x_max":842,"o":"m 342 165 q 201 582 243 571 q 174 804 223 699 l 174 182 q 194 58 174 88 q 296 41 214 28 l 283 -1 l 32 -1 l 20 41 q 113 62 91 28 q 136 187 136 96 l 136 766 q 118 838 136 806 q 32 844 100 869 l 44 884 l 212 884 q 214 884 213 884 q 366 737 303 874 q 325 758 343 757 l 429 238 l 565 812 q 545 912 576 880 q 666 884 581 890 l 817 884 l 829 844 q 779 854 799 857 q 758 732 741 848 q 732 604 743 722 q 741 449 734 534 q 802 492 753 464 q 729 102 736 351 q 744 43 729 58 q 842 41 758 28 l 829 -1 l 508 -1 l 496 41 q 602 43 587 28 q 616 102 616 58 l 616 286 q 587 387 608 338 q 616 561 612 451 l 616 611 q 566 587 605 584 q 611 827 618 647 l 513 422 q 537 336 511 368 q 493 340 509 330 l 411 -1 l 409 -1 q 293 -73 378 -92 q 342 165 368 -32 z "},"n":{"ha":753,"x_min":25,"x_max":747,"o":"m 126 829 q 121 840 124 835 q 28 836 107 867 l 40 882 l 187 882 q 230 882 211 884 l 244 882 l 245 881 q 320 833 310 873 q 311 763 281 816 q 369 727 344 758 q 328 736 342 740 q 389 671 358 692 q 434 533 399 602 l 595 237 l 595 712 q 572 829 595 795 q 486 836 549 864 l 498 882 l 734 882 l 747 836 q 659 830 682 865 q 640 781 646 812 q 685 813 654 812 q 635 541 635 754 l 635 -7 l 594 -35 l 471 236 q 288 421 376 376 q 366 410 332 426 l 302 495 l 289 552 q 218 601 258 600 q 175 774 207 692 l 175 531 q 184 359 174 451 q 246 369 196 366 q 187 189 188 339 q 203 68 187 119 q 284 47 220 17 l 272 -1 l 37 -1 l 25 47 q 114 52 92 17 q 136 184 136 87 l 136 727 q 98 705 122 706 q 126 829 138 748 z "},"o":{"ha":715,"x_min":45,"x_max":697,"o":"m 260 815 q 231 757 242 792 q 196 433 196 654 l 196 422 q 229 324 203 355 q 210 203 208 258 q 231 110 218 149 q 359 6 265 6 q 496 110 452 6 q 526 224 515 156 q 489 300 524 270 q 540 433 528 343 l 540 433 q 496 757 540 654 q 476 795 487 778 q 443 765 471 772 q 421 843 449 832 q 345 827 359 868 q 260 815 295 846 m 47 365 q 45 433 45 398 q 133 763 45 636 q 357 889 221 889 q 583 762 494 889 q 613 713 600 739 q 620 768 618 735 q 641 645 637 724 q 671 433 671 553 q 650 255 671 336 q 697 176 684 238 q 635 205 676 210 q 583 105 614 151 q 357 -22 494 -22 q 134 104 221 -22 q 107 146 119 124 q 123 15 100 69 q 47 365 54 106 z "},"p":{"ha":671,"x_min":12,"x_max":648,"o":"m 253 397 l 323 397 q 471 443 427 397 q 515 630 515 489 q 510 720 515 682 q 471 670 503 685 q 441 836 486 808 q 405 844 423 843 q 357 836 368 844 q 368 853 361 846 q 330 855 350 855 q 267 845 283 855 q 290 735 252 821 q 263 602 257 734 q 275 551 265 564 q 253 397 254 486 m 129 165 l 128 159 q 129 165 129 161 m 308 366 q 256 345 268 366 q 255 328 252 336 q 264 323 258 319 q 310 328 284 334 q 252 178 249 282 l 252 102 q 269 40 252 58 q 374 41 286 22 l 362 0 l 24 0 l 12 41 q 111 87 87 22 l 128 159 q 131 178 125 126 q 86 304 136 252 q 134 434 126 345 l 134 444 q 112 597 134 538 q 130 655 130 624 q 119 706 130 680 q 79 692 104 692 l 69 692 q 129 809 129 736 l 129 810 q 114 839 124 831 q 24 842 93 854 l 36 881 l 273 881 q 405 903 374 890 q 437 878 400 887 q 486 871 465 875 q 568 835 532 860 q 627 766 606 807 q 648 630 648 725 q 589 456 648 514 q 563 433 577 444 q 626 448 589 425 q 530 403 602 410 q 527 431 533 418 q 508 383 530 395 q 476 373 486 372 q 499 399 498 387 q 427 379 467 387 q 308 366 389 371 z "},"q":{"ha":728,"x_min":45,"x_max":730,"o":"m 264 813 q 234 755 245 790 q 198 426 198 649 l 198 414 q 232 314 206 346 q 212 191 211 248 q 234 96 220 136 q 364 -9 269 -9 q 503 96 458 -9 q 534 213 523 143 q 496 290 532 259 q 548 425 536 334 l 548 426 q 504 755 548 649 q 484 793 494 776 q 450 763 477 770 q 427 842 456 831 q 351 825 364 867 q 264 813 299 844 m 168 -2 q 143 35 156 0 q 189 28 163 34 q 135 91 160 54 q 109 134 120 111 q 125 0 101 55 q 47 356 54 94 q 45 426 45 390 q 134 760 45 631 q 363 888 224 888 q 592 760 501 888 q 623 709 609 736 q 629 765 628 732 q 650 641 648 720 q 682 426 682 547 q 661 244 682 326 q 708 164 695 227 q 644 194 686 197 q 591 92 624 138 q 370 -38 503 -35 q 528 -94 463 -76 q 606 -104 570 -104 q 655 -100 631 -104 q 718 -81 680 -95 q 689 -135 730 -111 l 683 -138 q 640 -193 651 -163 q 644 -160 635 -176 q 613 -176 627 -169 q 566 -186 587 -186 q 517 -177 545 -186 q 436 -142 477 -165 q 332 -75 412 -128 q 314 -64 320 -66 q 313 -86 306 -64 q 238 -22 286 -42 q 153 -21 190 -2 q 168 -2 158 -7 z "},"r":{"ha":690,"x_min":12,"x_max":673,"o":"m 385 851 q 296 737 370 844 q 302 839 323 825 q 266 843 279 854 q 253 785 253 831 l 253 476 l 324 476 q 474 523 429 476 q 518 677 518 570 q 475 813 518 771 q 385 851 444 843 m 591 229 q 594 195 593 213 q 595 178 594 189 q 651 -20 606 -19 q 670 -37 673 -20 q 609 -54 667 -54 q 534 -15 572 -54 q 478 62 496 24 q 466 96 471 76 q 385 258 387 155 q 442 191 409 207 q 503 177 475 176 q 450 197 465 182 q 447 256 448 224 q 419 384 446 326 q 309 446 393 443 q 258 425 269 446 q 256 407 253 415 q 266 403 259 399 q 351 408 286 414 q 253 98 250 361 q 270 35 253 53 q 357 37 287 18 l 345 -5 l 24 -5 l 12 37 q 111 83 87 18 q 127 234 125 122 q 87 363 129 347 q 135 493 127 403 l 135 503 q 113 595 135 536 q 130 654 130 623 q 120 705 130 678 q 80 690 104 690 l 70 691 q 120 787 115 743 q 115 838 124 831 q 24 842 94 853 l 36 881 l 275 881 q 407 903 376 890 q 439 878 402 886 q 488 871 467 875 q 571 834 535 859 q 630 765 609 806 q 652 677 652 724 q 593 537 652 595 q 566 513 581 524 q 541 491 550 502 q 530 511 543 507 q 523 465 540 483 q 480 442 505 448 q 478 469 499 461 q 429 459 469 467 q 550 367 512 427 q 569 328 561 350 q 658 364 599 360 q 591 229 607 316 z "},"s":{"ha":654,"x_min":42,"x_max":618,"o":"m 223 50 q 378 7 293 7 q 494 54 448 7 q 541 172 541 100 q 500 275 541 239 q 459 303 484 288 q 269 330 363 333 q 245 409 315 350 q 132 498 163 455 q 83 659 83 572 q 151 823 83 756 l 152 824 q 75 864 127 831 q 209 866 148 838 q 323 889 258 889 q 469 860 418 889 q 549 840 519 831 l 557 819 q 605 599 530 701 q 511 681 549 602 q 484 659 505 665 q 496 720 498 690 q 458 810 492 761 q 326 859 425 859 q 213 817 257 859 q 170 714 170 774 q 229 621 170 673 q 223 688 218 647 q 349 543 279 595 q 398 515 388 519 q 420 505 409 510 q 441 627 414 526 q 503 450 437 505 q 564 392 532 435 q 618 232 618 320 q 547 53 618 127 q 373 -21 476 -21 q 233 6 323 -21 q 49 -2 142 33 l 42 14 q 96 78 81 43 q 81 218 111 113 l 103 243 q 162 102 116 157 q 299 120 251 66 q 223 50 248 54 z "},"t":{"ha":654,"x_min":35,"x_max":635,"o":"m 404 73 q 402 62 404 73 q 412 43 401 52 q 509 47 433 28 l 497 0 l 172 0 l 159 47 q 257 43 237 28 q 277 100 277 58 q 227 635 277 273 q 264 767 264 696 q 250 793 264 780 q 269 824 277 806 q 239 838 260 838 q 122 801 163 838 q 56 665 81 765 l 35 683 l 54 886 q 355 863 198 861 q 614 886 511 866 l 635 683 l 613 665 q 547 801 587 765 q 431 838 506 838 q 405 829 414 838 q 422 798 393 796 q 408 757 408 770 q 445 637 408 686 q 392 325 395 463 l 392 107 q 437 120 408 118 q 404 73 406 94 z "},"u":{"ha":751,"x_min":11,"x_max":734,"o":"m 254 108 q 277 66 263 83 q 408 16 316 16 q 547 68 505 16 q 589 261 589 120 q 578 424 589 356 q 523 516 568 492 q 589 484 568 517 l 589 701 q 563 826 589 791 q 480 834 537 861 l 492 880 l 722 880 l 734 834 q 651 825 676 859 q 627 701 627 791 l 627 258 q 571 42 627 106 q 387 -22 515 -22 q 247 5 304 -22 q 156 90 190 33 q 130 162 138 121 q 122 291 122 203 l 122 471 q 98 525 116 513 q 116 574 113 536 q 86 720 123 690 q 115 791 112 758 q 87 797 105 787 q 107 838 116 817 q 102 844 104 841 q 11 834 81 865 l 23 880 l 336 880 l 348 834 q 258 844 279 865 q 237 779 237 823 l 237 243 q 309 141 249 164 q 253 142 281 132 q 199 205 216 157 q 254 108 208 138 z "},"v":{"ha":697,"x_min":-7,"x_max":723,"o":"m 567 789 q 546 843 567 821 q 476 852 524 865 l 488 880 l 711 880 l 723 852 q 652 832 684 864 q 634 688 612 791 q 600 743 605 715 q 591 715 595 729 l 376 -17 l 315 -17 q 235 197 292 103 q 171 353 178 292 q 208 325 191 333 q 199 404 224 317 l 178 480 q 94 641 134 608 q 58 838 99 791 q -7 852 33 861 l 5 880 l 294 880 l 306 852 q 243 845 257 865 q 231 810 233 830 q 297 700 241 736 q 254 695 270 687 q 299 587 270 645 q 334 352 300 522 l 386 138 l 484 481 q 496 625 496 549 q 567 789 557 709 z "},"w":{"ha":966,"x_min":-24,"x_max":998,"o":"m 479 379 l 363 -17 l 301 -17 q 221 200 278 104 q 155 356 163 295 q 192 328 176 336 q 184 408 209 319 l 163 484 q 79 647 118 613 q 41 846 83 798 q -24 861 16 869 l -12 888 l 279 888 l 292 861 q 229 853 243 873 q 216 817 218 838 q 283 706 226 743 q 239 701 256 693 q 285 593 256 651 q 319 355 286 526 l 372 139 l 471 486 q 484 631 484 554 q 555 797 545 715 q 533 851 555 829 q 463 861 512 873 l 475 888 l 700 888 l 713 861 q 641 840 673 871 q 623 694 601 799 q 589 749 593 722 q 579 722 583 736 l 562 663 q 570 593 564 607 q 605 355 572 526 l 658 139 l 757 486 q 770 631 770 554 q 841 797 831 715 q 820 851 841 829 q 749 861 798 873 l 762 888 l 986 888 l 998 861 q 927 840 958 871 q 909 694 886 799 q 874 749 879 722 q 865 722 869 736 l 648 -17 l 587 -17 q 538 138 564 104 q 505 233 513 172 q 543 205 526 213 q 479 379 554 199 z "},"x":{"ha":703,"x_min":-36,"x_max":724,"o":"m 307 447 l 308 449 q 134 688 205 665 q 133 812 142 789 q 104 848 124 835 q 7 840 72 870 l 19 886 l 346 886 l 358 846 q 288 855 304 870 q 271 824 272 842 q 343 696 279 760 q 376 572 338 662 l 474 757 q 490 791 486 777 q 494 816 494 805 q 473 854 494 838 q 405 846 452 870 l 417 886 l 670 886 l 683 846 q 582 843 618 870 q 517 760 547 815 l 421 581 q 471 592 442 590 q 411 496 401 546 l 585 129 q 639 39 617 61 q 724 41 661 17 l 711 0 l 387 0 l 374 41 q 466 32 451 17 q 481 65 481 46 q 479 84 481 74 q 471 106 476 94 l 408 243 q 366 180 400 208 q 338 379 389 245 q 327 407 332 393 l 193 140 q 179 105 184 122 q 174 77 174 89 q 192 36 174 54 q 274 41 210 17 l 261 0 l -24 0 l -36 41 q 72 43 33 21 q 120 182 117 81 q 218 272 147 140 l 224 283 q 267 414 274 390 q 307 447 294 428 z "},"y":{"ha":651,"x_min":-7,"x_max":680,"o":"m 532 715 l 528 707 l 422 550 q 417 406 383 453 q 393 218 400 353 l 391 102 q 415 38 391 58 q 508 41 439 17 l 496 0 l 180 0 l 168 41 q 262 37 239 17 q 283 76 279 51 q 250 340 288 146 q 277 406 276 359 q 260 441 274 427 q 278 507 277 474 l 276 505 q 226 472 254 476 q 172 616 261 549 q 123 730 163 653 q 25 831 77 823 q 64 835 41 840 q 54 848 58 842 q -7 858 37 870 l 5 886 l 251 886 l 263 858 q 217 856 230 870 q 204 823 204 842 q 205 817 204 821 q 242 783 211 789 q 378 554 243 749 l 500 734 q 511 772 507 753 q 515 806 515 791 q 498 851 515 833 q 441 858 481 870 l 454 886 l 668 886 l 680 858 q 600 829 627 868 q 574 790 589 813 q 563 678 547 731 q 532 715 540 690 z "},"z":{"ha":625,"x_min":28,"x_max":604,"o":"m 336 26 l 362 26 q 542 90 522 26 q 549 257 563 153 l 592 269 q 604 -29 574 45 q 28 -3 357 12 l 28 26 l 102 166 q 248 581 254 462 q 396 727 330 582 q 412 806 418 773 q 467 854 452 829 l 229 854 q 110 808 127 854 q 119 690 92 762 l 73 669 q 71 836 89 770 q 72 849 70 843 q 39 916 68 889 q 174 882 119 886 l 578 882 l 598 883 q 593 861 595 872 l 593 859 l 592 859 q 595 735 574 779 q 547 771 551 744 q 538 700 536 737 q 489 656 504 688 q 470 503 460 589 q 280 271 376 461 l 151 26 l 281 26 q 286 64 277 39 q 336 26 302 33 z "},"{":{"ha":694,"x_min":119,"x_max":574,"o":"m 574 1028 l 574 994 q 442 956 477 992 q 407 814 407 920 l 407 717 q 366 508 407 564 q 286 431 324 452 q 366 354 324 410 q 407 144 407 298 l 407 47 q 442 -94 407 -58 q 574 -131 477 -130 l 574 -165 l 567 -165 q 365 -116 420 -165 q 310 69 310 -66 l 310 165 q 277 313 310 273 q 119 363 243 354 l 119 452 q 277 502 245 462 q 310 648 310 542 l 310 793 q 365 978 310 928 q 567 1028 420 1028 l 574 1028 z "},"|":{"ha":694,"x_min":291,"x_max":404,"o":"m 291 1034 l 404 1061 l 390 -307 l 304 -328 l 291 1034 z "},"}":{"ha":694,"x_min":119,"x_max":574,"o":"m 119 1028 l 126 1028 q 328 978 273 1028 q 383 793 383 928 l 383 648 q 416 502 383 542 q 574 452 448 462 l 574 363 q 416 313 450 354 q 383 165 383 273 l 383 69 q 328 -116 383 -66 q 126 -165 273 -165 l 119 -165 l 119 -131 q 251 -94 216 -130 q 286 47 286 -58 l 286 144 q 328 354 286 298 q 407 431 369 410 q 328 508 369 452 q 286 717 286 564 l 286 814 q 251 956 286 920 q 119 994 216 992 l 119 1028 z "},"~":{"ha":1157,"x_min":121,"x_max":1038,"o":"m 784 408 q 896 433 838 410 q 1038 514 958 458 l 1038 425 q 910 345 969 376 q 789 314 852 314 q 721 327 760 314 q 646 351 682 340 q 587 372 625 358 q 414 419 479 410 q 411 378 423 398 q 296 407 347 409 q 264 396 280 402 q 121 313 203 370 l 121 403 q 251 487 192 452 q 370 522 310 522 q 455 503 408 522 q 581 457 503 484 q 604 448 589 454 q 652 432 629 439 q 886 464 746 422 q 784 408 853 431 z "},"":{"ha":456,"x_min":0,"x_max":0,"o":""},"":{"ha":772,"x_min":0,"x_max":0,"o":""},"":{"ha":534,"x_min":37,"x_max":541,"o":"m 212 115 q 117 159 154 159 q 76 144 92 159 q 60 106 60 129 q 79 62 60 81 q 125 43 99 43 q 177 63 152 43 q 212 115 202 83 m 258 922 q 314 928 285 928 q 454 878 399 928 q 509 751 509 827 q 498 702 509 724 q 524 585 496 635 q 422 652 476 643 l 421 652 q 384 693 384 652 q 425 735 383 735 q 457 797 457 735 q 413 883 457 858 q 326 909 369 909 q 233 871 271 909 q 195 777 195 833 q 205 690 195 731 q 250 569 216 650 q 277 500 267 529 q 315 570 298 522 q 308 480 318 519 q 449 449 304 463 l 449 433 l 297 433 q 313 320 313 378 q 288 178 313 239 q 390 161 348 161 q 456 172 429 161 q 523 148 505 189 q 507 26 541 106 q 438 -3 494 -5 q 241 91 382 -1 q 131 26 193 26 q 64 52 92 26 q 37 115 37 77 q 68 183 37 155 q 146 210 100 210 q 229 197 173 210 q 216 282 229 235 q 207 308 212 295 q 155 283 186 276 q 140 417 204 361 l 40 433 l 40 449 l 107 449 q 75 480 86 460 q 134 454 102 450 q 68 665 68 573 q 140 851 68 774 q 158 869 149 861 q 87 916 109 884 q 258 922 166 907 z "},"":{"ha":688,"x_min":0,"x_max":0,"o":""},"":{"ha":714,"x_min":-7,"x_max":749,"o":"m 586 786 l 582 778 l 465 605 q 459 446 422 498 q 433 239 441 389 l 431 113 q 457 41 431 64 q 559 45 483 18 l 546 0 l 199 0 l 186 45 q 290 41 264 18 q 313 83 307 56 q 275 374 317 161 q 306 447 304 395 q 286 485 302 469 q 307 558 305 522 l 304 555 q 249 519 279 524 q 189 677 288 603 q 136 802 180 718 q 28 914 85 905 q 71 918 46 924 q 60 933 64 926 q -7 943 41 957 l 7 974 l 277 974 l 290 943 q 239 942 254 957 q 225 905 225 926 q 226 899 225 902 q 267 861 233 867 q 416 609 268 823 l 550 807 q 563 849 558 828 q 567 886 567 870 q 548 936 567 916 q 486 943 530 957 l 500 974 l 735 974 l 749 943 q 661 912 690 954 q 632 869 648 895 q 620 746 602 804 q 586 786 594 758 m 97 511 l 641 511 l 641 460 l 97 460 l 97 511 m 97 375 l 641 375 l 641 323 l 97 323 l 97 375 z "},"":{"ha":688,"x_min":0,"x_max":0,"o":""},"":{"ha":688,"x_min":0,"x_max":0,"o":""},"":{"ha":667,"x_min":186,"x_max":477,"o":"m 186 925 l 186 892 q 199 857 186 865 q 244 848 212 848 q 291 857 278 848 q 304 892 304 866 l 304 925 q 291 960 304 951 q 244 970 278 970 q 199 961 212 970 q 186 925 186 951 m 359 925 l 359 892 q 372 857 359 865 q 417 848 385 848 q 464 857 451 848 q 477 892 477 866 l 477 925 q 464 960 477 951 q 417 970 451 970 q 372 961 385 970 q 359 925 359 951 z "},"":{"ha":1135,"x_min":0,"x_max":0,"o":""},"":{"ha":439,"x_min":0,"x_max":0,"o":""},"":{"ha":640,"x_min":0,"x_max":0,"o":""},"":{"ha":688,"x_min":0,"x_max":0,"o":""},"":{"ha":1135,"x_min":0,"x_max":0,"o":""},"":{"ha":454,"x_min":0,"x_max":0,"o":""},"":{"ha":457,"x_min":0,"x_max":0,"o":""},"":{"ha":1157,"x_min":172,"x_max":985,"o":"m 479 347 q 342 301 399 342 q 388 355 345 325 l 172 375 l 172 454 l 539 505 l 526 828 l 619 828 l 619 739 q 648 601 625 675 q 619 512 623 555 l 619 505 l 985 454 l 985 375 l 619 346 l 633 0 l 526 0 l 539 342 l 479 347 m 619 -96 q 342 -141 399 -100 q 388 -87 345 -117 l 172 -67 l 172 12 l 539 62 q 619 71 623 113 l 619 63 l 985 12 l 985 -67 l 619 -96 z "},"":{"ha":688,"x_min":0,"x_max":0,"o":""},"":{"ha":688,"x_min":0,"x_max":0,"o":""},"":{"ha":612,"x_min":186,"x_max":420,"o":"m 397 935 l 227 812 l 186 812 l 319 983 q 347 1011 335 1004 q 376 1018 359 1018 q 397 935 420 1018 z "},"":{"ha":800,"x_min":0,"x_max":0,"o":""},"":{"ha":694,"x_min":0,"x_max":0,"o":""},"":{"ha":345,"x_min":0,"x_max":0,"o":""},"":{"ha":694,"x_min":0,"x_max":0,"o":""},"":{"ha":688,"x_min":0,"x_max":0,"o":""},"":{"ha":487,"x_min":0,"x_max":0,"o":""},"":{"ha":640,"x_min":0,"x_max":0,"o":""},"":{"ha":1158,"x_min":0,"x_max":0,"o":""},"":{"ha":1332,"x_min":0,"x_max":0,"o":""},"":{"ha":1158,"x_min":0,"x_max":0,"o":""},"":{"ha":507,"x_min":0,"x_max":0,"o":""},"":{"ha":786,"x_min":-27,"x_max":810,"o":"m 332 740 l 244 426 q 326 430 277 443 q 244 385 252 422 q 287 347 237 347 l 477 347 q 429 448 468 415 q 436 536 442 463 l 357 831 l 351 809 q 348 716 360 747 q 332 740 345 737 m 502 292 l 496 298 l 216 298 q 193 242 203 271 l 171 161 q 165 130 167 145 q 163 103 163 115 q 186 43 163 67 q 275 45 209 20 l 261 0 l -14 0 l -27 45 q 80 66 43 18 q 142 201 117 114 q 290 979 334 960 q 401 975 344 994 l 450 981 q 465 890 456 930 l 547 601 q 612 479 583 513 q 607 416 599 440 q 679 336 633 339 q 674 151 652 221 q 717 55 696 80 q 810 45 743 23 l 796 0 l 460 0 l 446 45 q 529 41 507 20 q 551 90 551 62 q 549 117 551 103 q 541 154 547 132 l 535 170 q 490 233 517 220 q 417 241 463 245 q 510 263 454 276 q 587 162 565 251 q 503 292 577 264 l 502 292 m 194 1066 q 215 1149 171 1149 q 244 1143 233 1149 q 272 1115 256 1136 l 406 944 l 364 944 l 194 1066 z "},"":{"ha":786,"x_min":-27,"x_max":810,"o":"m 332 740 l 244 426 q 326 430 277 443 q 244 385 252 422 q 287 347 237 347 l 477 347 q 429 448 468 415 q 436 536 442 463 l 357 831 l 351 809 q 348 716 360 747 q 332 740 345 737 m 502 292 l 496 298 l 216 298 q 193 242 203 271 l 171 161 q 165 130 167 145 q 163 103 163 115 q 186 43 163 67 q 275 45 209 20 l 261 0 l -14 0 l -27 45 q 80 66 43 18 q 142 201 117 114 q 290 979 334 960 q 401 975 344 994 l 450 981 q 465 890 456 930 l 547 601 q 612 479 583 513 q 607 416 599 440 q 679 336 633 339 q 674 151 652 221 q 717 55 696 80 q 810 45 743 23 l 796 0 l 460 0 l 446 45 q 529 41 507 20 q 551 90 551 62 q 549 117 551 103 q 541 154 547 132 l 535 170 q 490 233 517 220 q 417 241 463 245 q 510 263 454 276 q 587 162 565 251 q 503 292 577 264 l 502 292 m 535 1066 l 365 944 l 323 944 l 457 1115 q 485 1143 473 1136 q 514 1149 496 1149 q 535 1066 558 1149 z "},"":{"ha":786,"x_min":-27,"x_max":810,"o":"m 332 740 l 244 426 q 326 430 277 443 q 244 385 252 422 q 287 347 237 347 l 477 347 q 429 448 468 415 q 436 536 442 463 l 357 831 l 351 809 q 348 716 360 747 q 332 740 345 737 m 502 292 l 496 298 l 216 298 q 193 242 203 271 l 171 161 q 165 130 167 145 q 163 103 163 115 q 186 43 163 67 q 275 45 209 20 l 261 0 l -14 0 l -27 45 q 80 66 43 18 q 142 201 117 114 q 290 979 334 960 q 401 975 344 994 l 450 981 q 465 890 456 930 l 547 601 q 612 479 583 513 q 607 416 599 440 q 679 336 633 339 q 674 151 652 221 q 717 55 696 80 q 810 45 743 23 l 796 0 l 460 0 l 446 45 q 529 41 507 20 q 551 90 551 62 q 549 117 551 103 q 541 154 547 132 l 535 170 q 490 233 517 220 q 417 241 463 245 q 510 263 454 276 q 587 162 565 251 q 503 292 577 264 l 502 292 m 345 1152 l 421 1152 l 568 971 l 525 971 q 383 1086 466 1058 q 233 971 300 1059 l 197 971 l 345 1152 z "},"":{"ha":786,"x_min":-27,"x_max":810,"o":"m 332 740 l 244 426 q 326 430 277 443 q 244 385 252 422 q 287 347 237 347 l 477 347 q 429 448 468 415 q 436 536 442 463 l 357 831 l 351 809 q 348 716 360 747 q 332 740 345 737 m 502 292 l 496 298 l 216 298 q 193 242 203 271 l 171 161 q 165 130 167 145 q 163 103 163 115 q 186 43 163 67 q 275 45 209 20 l 261 0 l -14 0 l -27 45 q 80 66 43 18 q 142 201 117 114 q 290 979 334 960 q 401 975 344 994 l 450 981 q 465 890 456 930 l 547 601 q 612 479 583 513 q 607 416 599 440 q 679 336 633 339 q 674 151 652 221 q 717 55 696 80 q 810 45 743 23 l 796 0 l 460 0 l 446 45 q 529 41 507 20 q 551 90 551 62 q 549 117 551 103 q 541 154 547 132 l 535 170 q 490 233 517 220 q 417 241 463 245 q 510 263 454 276 q 587 162 565 251 q 503 292 577 264 l 502 292 m 467 1058 q 515 1072 491 1059 q 577 1120 543 1087 l 577 1068 q 522 1021 547 1039 q 469 1002 496 1002 q 439 1010 456 1002 q 407 1025 422 1018 q 381 1037 398 1029 q 307 1064 335 1059 q 305 1040 311 1052 q 255 1057 277 1058 q 241 1050 248 1055 q 179 1002 215 1036 l 179 1055 q 236 1104 210 1084 q 288 1124 261 1124 q 325 1114 304 1124 q 379 1086 345 1103 q 389 1082 382 1085 q 410 1072 400 1076 q 511 1090 451 1066 q 467 1058 497 1071 z "},"":{"ha":786,"x_min":-27,"x_max":810,"o":"m 332 740 l 244 426 q 326 430 277 443 q 244 385 252 422 q 287 347 237 347 l 477 347 q 429 448 468 415 q 436 536 442 463 l 357 831 l 351 809 q 348 716 360 747 q 332 740 345 737 m 502 292 l 496 298 l 216 298 q 193 242 203 271 l 171 161 q 165 130 167 145 q 163 103 163 115 q 186 43 163 67 q 275 45 209 20 l 261 0 l -14 0 l -27 45 q 80 66 43 18 q 142 201 117 114 q 290 979 334 960 q 401 975 344 994 l 450 981 q 465 890 456 930 l 547 601 q 612 479 583 513 q 607 416 599 440 q 679 336 633 339 q 674 151 652 221 q 717 55 696 80 q 810 45 743 23 l 796 0 l 460 0 l 446 45 q 529 41 507 20 q 551 90 551 62 q 549 117 551 103 q 541 154 547 132 l 535 170 q 490 233 517 220 q 417 241 463 245 q 510 263 454 276 q 587 162 565 251 q 503 292 577 264 l 502 292 m 234 1092 l 234 1059 q 247 1023 234 1031 q 292 1015 260 1015 q 339 1024 326 1015 q 352 1059 352 1033 l 352 1092 q 339 1127 352 1118 q 292 1137 326 1137 q 247 1127 260 1137 q 234 1092 234 1118 m 407 1092 l 407 1059 q 420 1023 407 1031 q 465 1015 433 1015 q 512 1024 499 1015 q 525 1059 525 1033 l 525 1092 q 512 1127 525 1118 q 465 1137 499 1137 q 420 1127 433 1137 q 407 1092 407 1118 z "},"":{"ha":786,"x_min":-27,"x_max":810,"o":"m 332 740 l 244 426 q 326 430 277 443 q 244 385 252 422 q 287 347 237 347 l 477 347 q 429 448 468 415 q 436 536 442 463 l 357 831 l 351 809 q 348 716 360 747 q 332 740 345 737 m 502 292 l 496 298 l 216 298 q 193 242 203 271 l 171 161 q 165 130 167 145 q 163 103 163 115 q 186 43 163 67 q 275 45 209 20 l 261 0 l -14 0 l -27 45 q 80 66 43 18 q 142 201 117 114 q 290 979 334 960 q 401 975 344 994 l 450 981 q 465 890 456 930 l 547 601 q 612 479 583 513 q 607 416 599 440 q 679 336 633 339 q 674 151 652 221 q 717 55 696 80 q 810 45 743 23 l 796 0 l 460 0 l 446 45 q 529 41 507 20 q 551 90 551 62 q 549 117 551 103 q 541 154 547 132 l 535 170 q 490 233 517 220 q 417 241 463 245 q 510 263 454 276 q 587 162 565 251 q 503 292 577 264 l 502 292 m 330 1075 l 330 1032 q 342 985 330 997 q 382 973 353 973 q 425 985 413 973 q 436 1032 436 998 l 436 1075 q 425 1122 436 1109 q 382 1134 413 1134 q 342 1122 353 1134 q 330 1075 330 1109 m 486 979 l 478 972 q 382 944 439 944 q 288 972 327 944 q 250 1043 250 1000 q 288 1115 250 1086 q 382 1143 326 1143 q 478 1115 439 1143 q 516 1043 516 1086 q 515 1032 516 1038 q 551 977 520 994 q 486 979 498 972 z "},"":{"ha":1221,"x_min":-14,"x_max":1189,"o":"m 589 290 q 583 292 587 291 l 583 292 l 578 298 l 298 298 q 260 242 277 271 l 216 161 q 201 130 207 145 q 191 103 195 115 q 198 43 181 67 q 288 45 214 20 l 261 0 l -14 0 l -14 45 q 98 66 48 18 q 197 201 149 114 q 560 979 600 960 q 671 975 618 994 l 721 981 q 720 972 720 976 l 736 974 q 903 1016 871 983 q 884 974 899 991 l 1155 974 q 1147 664 1116 875 l 1088 650 q 1090 920 1128 888 q 853 942 1052 951 l 857 930 q 764 930 787 950 q 747 903 753 920 q 749 884 745 893 q 753 874 752 878 q 748 863 755 871 q 744 836 743 857 q 766 785 745 814 q 735 646 743 756 q 901 692 881 648 q 924 829 921 737 l 956 816 q 943 671 945 745 q 987 519 946 574 q 945 537 963 526 q 956 429 948 484 l 924 415 q 901 563 921 512 q 782 612 885 605 q 735 614 760 614 l 734 596 q 770 597 752 610 q 740 488 750 585 l 744 479 q 738 469 741 474 q 732 366 734 425 q 772 336 745 338 q 730 237 744 281 l 728 111 q 911 31 728 24 q 1114 103 1095 38 q 1132 334 1132 168 l 1177 347 q 1153 168 1160 247 q 1189 66 1155 99 q 1149 68 1167 53 q 1154 0 1149 31 l 460 0 l 459 45 q 540 41 512 20 q 576 90 568 62 q 582 117 580 103 q 583 154 583 132 l 582 170 q 554 233 578 220 q 484 241 531 245 q 583 264 530 276 q 591 260 587 262 q 589 290 590 275 m 576 498 q 545 704 561 684 q 583 825 590 728 l 574 809 q 546 716 566 747 q 536 740 548 737 l 361 426 q 445 430 399 443 q 351 385 369 422 q 382 347 332 347 l 573 347 q 553 448 583 415 q 576 498 565 458 z "},"":{"ha":949,"x_min":0,"x_max":0,"o":""},"":{"ha":779,"x_min":31,"x_max":743,"o":"m 704 68 q 708 0 704 31 l 51 0 l 37 44 q 130 43 108 24 q 153 111 153 62 q 100 704 127 669 q 132 863 153 732 q 126 874 125 871 q 130 884 127 878 q 130 912 137 897 q 117 931 125 924 q 31 930 94 950 l 44 974 l 291 974 q 457 1016 425 983 q 438 974 453 991 l 709 974 q 701 664 670 875 l 642 650 q 645 920 683 888 q 408 942 606 951 l 411 930 q 319 930 341 950 q 301 903 307 920 q 304 884 300 893 q 308 874 307 878 q 302 863 309 871 q 299 836 298 857 q 321 785 300 814 q 290 646 298 756 q 455 692 435 648 q 478 829 475 737 l 510 816 q 497 671 500 745 q 541 519 500 574 q 499 537 517 526 q 510 429 503 484 l 478 415 q 456 563 475 512 q 336 612 439 605 q 290 614 315 614 l 289 596 q 325 597 307 610 q 285 252 286 574 l 282 111 q 466 31 282 24 q 668 103 650 38 q 686 334 686 168 l 732 347 q 708 168 715 247 q 743 66 709 99 q 704 68 722 53 m 191 1066 q 212 1149 168 1149 q 241 1143 229 1149 q 269 1115 253 1136 l 402 944 l 361 944 l 191 1066 z "},"":{"ha":779,"x_min":31,"x_max":743,"o":"m 704 68 q 708 0 704 31 l 51 0 l 37 44 q 130 43 108 24 q 153 111 153 62 q 100 704 127 669 q 132 863 153 732 q 126 874 125 871 q 130 884 127 878 q 130 912 137 897 q 117 931 125 924 q 31 930 94 950 l 44 974 l 291 974 q 457 1016 425 983 q 438 974 453 991 l 709 974 q 701 664 670 875 l 642 650 q 645 920 683 888 q 408 942 606 951 l 411 930 q 319 930 341 950 q 301 903 307 920 q 304 884 300 893 q 308 874 307 878 q 302 863 309 871 q 299 836 298 857 q 321 785 300 814 q 290 646 298 756 q 455 692 435 648 q 478 829 475 737 l 510 816 q 497 671 500 745 q 541 519 500 574 q 499 537 517 526 q 510 429 503 484 l 478 415 q 456 563 475 512 q 336 612 439 605 q 290 614 315 614 l 289 596 q 325 597 307 610 q 285 252 286 574 l 282 111 q 466 31 282 24 q 668 103 650 38 q 686 334 686 168 l 732 347 q 708 168 715 247 q 743 66 709 99 q 704 68 722 53 m 529 1066 l 359 944 l 317 944 l 451 1115 q 478 1143 467 1136 q 508 1149 490 1149 q 529 1066 552 1149 z "},"":{"ha":779,"x_min":31,"x_max":743,"o":"m 704 68 q 708 0 704 31 l 51 0 l 37 44 q 130 43 108 24 q 153 111 153 62 q 100 704 127 669 q 132 863 153 732 q 126 874 125 871 q 130 884 127 878 q 130 912 137 897 q 117 931 125 924 q 31 930 94 950 l 44 974 l 291 974 q 457 1016 425 983 q 438 974 453 991 l 709 974 q 701 664 670 875 l 642 650 q 645 920 683 888 q 408 942 606 951 l 411 930 q 319 930 341 950 q 301 903 307 920 q 304 884 300 893 q 308 874 307 878 q 302 863 309 871 q 299 836 298 857 q 321 785 300 814 q 290 646 298 756 q 455 692 435 648 q 478 829 475 737 l 510 816 q 497 671 500 745 q 541 519 500 574 q 499 537 517 526 q 510 429 503 484 l 478 415 q 456 563 475 512 q 336 612 439 605 q 290 614 315 614 l 289 596 q 325 597 307 610 q 285 252 286 574 l 282 111 q 466 31 282 24 q 668 103 650 38 q 686 334 686 168 l 732 347 q 708 168 715 247 q 743 66 709 99 q 704 68 722 53 m 335 1152 l 412 1152 l 558 971 l 515 971 q 374 1086 456 1058 q 223 971 290 1059 l 187 971 l 335 1152 z "},"":{"ha":779,"x_min":31,"x_max":743,"o":"m 704 68 q 708 0 704 31 l 51 0 l 37 44 q 130 43 108 24 q 153 111 153 62 q 100 704 127 669 q 132 863 153 732 q 126 874 125 871 q 130 884 127 878 q 130 912 137 897 q 117 931 125 924 q 31 930 94 950 l 44 974 l 291 974 q 457 1016 425 983 q 438 974 453 991 l 709 974 q 701 664 670 875 l 642 650 q 645 920 683 888 q 408 942 606 951 l 411 930 q 319 930 341 950 q 301 903 307 920 q 304 884 300 893 q 308 874 307 878 q 302 863 309 871 q 299 836 298 857 q 321 785 300 814 q 290 646 298 756 q 455 692 435 648 q 478 829 475 737 l 510 816 q 497 671 500 745 q 541 519 500 574 q 499 537 517 526 q 510 429 503 484 l 478 415 q 456 563 475 512 q 336 612 439 605 q 290 614 315 614 l 289 596 q 325 597 307 610 q 285 252 286 574 l 282 111 q 466 31 282 24 q 668 103 650 38 q 686 334 686 168 l 732 347 q 708 168 715 247 q 743 66 709 99 q 704 68 722 53 m 253 1092 l 253 1059 q 266 1023 253 1031 q 311 1015 279 1015 q 358 1024 345 1015 q 371 1059 371 1033 l 371 1092 q 358 1127 371 1118 q 311 1137 345 1137 q 266 1127 279 1137 q 253 1092 253 1118 m 426 1092 l 426 1059 q 439 1023 426 1031 q 484 1015 452 1015 q 531 1024 518 1015 q 544 1059 544 1033 l 544 1092 q 531 1127 544 1118 q 484 1137 518 1137 q 439 1127 452 1137 q 426 1092 426 1118 z "},"":{"ha":436,"x_min":30,"x_max":411,"o":"m 142 676 l 142 675 q 113 785 141 750 q 135 836 134 814 q 132 863 136 857 q 126 874 125 871 q 130 884 127 878 q 130 912 137 897 q 117 931 125 924 q 31 930 94 950 l 44 974 l 397 974 l 411 930 q 319 930 341 950 q 301 903 307 920 q 304 884 300 893 q 308 874 307 878 q 302 863 309 871 q 299 836 298 857 q 321 785 300 814 q 293 699 298 756 l 282 111 q 305 43 282 63 q 404 44 328 24 l 391 0 l 51 0 l 37 44 q 130 43 108 24 q 153 111 153 62 l 142 676 m 53 1066 q 74 1149 30 1149 q 103 1143 92 1149 q 131 1115 115 1136 l 264 944 l 223 944 l 53 1066 z "},"":{"ha":436,"x_min":31,"x_max":411,"o":"m 142 676 l 142 675 q 113 785 141 750 q 135 836 134 814 q 132 863 136 857 q 126 874 125 871 q 130 884 127 878 q 130 912 137 897 q 117 931 125 924 q 31 930 94 950 l 44 974 l 397 974 l 411 930 q 319 930 341 950 q 301 903 307 920 q 304 884 300 893 q 308 874 307 878 q 302 863 309 871 q 299 836 298 857 q 321 785 300 814 q 293 699 298 756 l 282 111 q 305 43 282 63 q 404 44 328 24 l 391 0 l 51 0 l 37 44 q 130 43 108 24 q 153 111 153 62 l 142 676 m 366 1066 l 196 944 l 155 944 l 288 1115 q 316 1143 304 1136 q 345 1149 328 1149 q 366 1066 389 1149 z "},"":{"ha":436,"x_min":31,"x_max":411,"o":"m 142 676 l 142 675 q 113 785 141 750 q 135 836 134 814 q 132 863 136 857 q 126 874 125 871 q 130 884 127 878 q 130 912 137 897 q 117 931 125 924 q 31 930 94 950 l 44 974 l 397 974 l 411 930 q 319 930 341 950 q 301 903 307 920 q 304 884 300 893 q 308 874 307 878 q 302 863 309 871 q 299 836 298 857 q 321 785 300 814 q 293 699 298 756 l 282 111 q 305 43 282 63 q 404 44 328 24 l 391 0 l 51 0 l 37 44 q 130 43 108 24 q 153 111 153 62 l 142 676 m 188 1152 l 264 1152 l 411 1010 l 368 1010 q 226 1101 309 1078 q 76 1010 143 1079 l 40 1010 l 188 1152 z "},"":{"ha":436,"x_min":31,"x_max":411,"o":"m 142 676 l 142 675 q 113 785 141 750 q 135 836 134 814 q 132 863 136 857 q 126 874 125 871 q 130 884 127 878 q 130 912 137 897 q 117 931 125 924 q 31 930 94 950 l 44 974 l 397 974 l 411 930 q 319 930 341 950 q 301 903 307 920 q 304 884 300 893 q 308 874 307 878 q 302 863 309 871 q 299 836 298 857 q 321 785 300 814 q 293 699 298 756 l 282 111 q 305 43 282 63 q 404 44 328 24 l 391 0 l 51 0 l 37 44 q 130 43 108 24 q 153 111 153 62 l 142 676 m 67 1092 l 67 1059 q 80 1023 67 1031 q 125 1015 93 1015 q 172 1024 159 1015 q 185 1059 185 1033 l 185 1092 q 172 1127 185 1118 q 125 1137 159 1137 q 80 1127 93 1137 q 67 1092 67 1118 m 240 1092 l 240 1059 q 253 1023 240 1031 q 298 1015 266 1015 q 345 1024 332 1015 q 358 1059 358 1033 l 358 1092 q 345 1127 358 1118 q 298 1137 332 1137 q 253 1127 266 1137 q 240 1092 240 1118 z "},"":{"ha":790,"x_min":24,"x_max":754,"o":"m 604 574 q 547 842 596 758 q 404 935 487 942 q 305 911 320 928 q 292 876 295 901 q 358 897 317 903 q 307 826 319 883 q 319 749 294 776 q 290 584 291 692 l 277 131 q 292 50 277 68 q 357 32 307 32 q 549 135 493 32 q 566 172 558 151 q 512 152 547 157 q 610 275 559 182 q 670 446 661 369 q 593 292 632 348 q 595 306 594 298 q 548 437 593 402 q 604 574 609 472 m 659 829 q 698 762 680 798 q 754 501 754 643 q 707 245 754 358 q 636 127 679 178 q 629 13 612 68 q 576 70 588 37 q 572 68 574 69 q 469 16 524 32 q 328 0 414 0 l 39 0 l 25 45 q 125 42 103 18 q 147 113 147 66 q 111 475 153 414 q 134 564 134 492 q 92 692 131 667 q 147 857 143 768 q 126 925 145 897 q 25 928 105 956 l 39 974 l 325 974 q 447 966 396 974 l 448 966 q 604 1013 573 960 q 543 936 598 954 l 549 933 q 574 916 562 926 l 616 900 l 659 829 m 437 441 l 54 457 l 24 503 l 410 529 q 446 533 434 535 q 471 519 458 530 q 437 441 502 491 z "},"":{"ha":827,"x_min":25,"x_max":821,"o":"m 136 915 q 132 927 134 922 q 28 923 116 957 l 41 974 l 204 974 q 251 974 230 975 l 267 974 l 267 972 q 351 920 339 964 q 340 842 308 901 q 404 802 376 837 q 359 812 374 817 q 427 741 393 764 q 476 589 437 665 l 654 262 l 654 786 q 629 916 654 878 q 533 923 604 954 l 547 974 l 807 974 l 821 923 q 724 916 750 955 q 703 861 709 896 q 753 897 720 896 q 697 597 698 833 l 697 -7 l 644 -45 l 517 261 q 315 465 412 416 q 401 453 364 471 l 330 547 l 316 610 q 238 663 281 663 q 191 854 226 764 l 191 587 q 201 397 189 498 q 269 408 214 404 q 204 210 205 374 q 222 76 204 132 q 311 52 240 20 l 298 0 l 39 0 l 25 52 q 123 58 98 20 q 147 204 147 96 l 147 802 q 106 779 132 780 q 136 915 150 825 m 512 1058 q 561 1072 536 1059 q 622 1120 587 1087 l 622 1068 q 567 1021 592 1039 q 514 1002 541 1002 q 484 1010 501 1002 q 452 1025 467 1018 q 427 1037 443 1029 q 351 1064 380 1059 q 350 1040 355 1052 q 300 1057 323 1058 q 286 1050 293 1055 q 224 1002 260 1036 l 224 1055 q 280 1104 255 1084 q 332 1124 306 1124 q 369 1114 349 1124 q 424 1086 390 1103 q 434 1082 427 1085 q 455 1072 445 1076 q 556 1090 496 1066 q 512 1058 542 1071 z "},"":{"ha":790,"x_min":45,"x_max":774,"o":"m 286 914 q 253 850 266 888 q 214 488 214 734 l 214 475 q 251 365 222 400 q 229 229 228 292 q 253 125 238 169 q 396 9 292 9 q 549 125 500 9 q 583 254 571 177 q 542 338 581 304 q 599 486 585 387 l 599 488 q 550 850 599 734 q 528 892 540 873 q 490 859 521 867 q 466 945 497 933 q 381 927 396 974 q 286 914 325 949 m 47 411 q 45 488 45 448 q 143 856 45 714 q 395 997 242 997 q 647 855 547 997 q 680 800 665 829 q 688 861 686 825 q 711 724 708 812 q 746 488 746 621 q 722 288 746 378 q 774 200 760 269 q 705 233 751 237 q 646 120 682 171 q 395 -22 547 -22 q 144 119 242 -22 q 115 166 127 142 q 133 19 106 80 q 47 411 54 122 m 178 1066 q 199 1149 155 1149 q 228 1143 216 1149 q 256 1115 240 1136 l 389 944 l 348 944 l 178 1066 z "},"":{"ha":790,"x_min":45,"x_max":774,"o":"m 286 914 q 253 850 266 888 q 214 488 214 734 l 214 475 q 251 365 222 400 q 229 229 228 292 q 253 125 238 169 q 396 9 292 9 q 549 125 500 9 q 583 254 571 177 q 542 338 581 304 q 599 486 585 387 l 599 488 q 550 850 599 734 q 528 892 540 873 q 490 859 521 867 q 466 945 497 933 q 381 927 396 974 q 286 914 325 949 m 47 411 q 45 488 45 448 q 143 856 45 714 q 395 997 242 997 q 647 855 547 997 q 680 800 665 829 q 688 861 686 825 q 711 724 708 812 q 746 488 746 621 q 722 288 746 378 q 774 200 760 269 q 705 233 751 237 q 646 120 682 171 q 395 -22 547 -22 q 144 119 242 -22 q 115 166 127 142 q 133 19 106 80 q 47 411 54 122 m 542 1066 l 372 944 l 330 944 l 464 1115 q 491 1143 479 1136 q 521 1149 503 1149 q 542 1066 565 1149 z "},"":{"ha":790,"x_min":45,"x_max":774,"o":"m 286 914 q 253 850 266 888 q 214 488 214 734 l 214 475 q 251 365 222 400 q 229 229 228 292 q 253 125 238 169 q 396 9 292 9 q 549 125 500 9 q 583 254 571 177 q 542 338 581 304 q 599 486 585 387 l 599 488 q 550 850 599 734 q 528 892 540 873 q 490 859 521 867 q 466 945 497 933 q 381 927 396 974 q 286 914 325 949 m 47 411 q 45 488 45 448 q 143 856 45 714 q 395 997 242 997 q 647 855 547 997 q 680 800 665 829 q 688 861 686 825 q 711 724 708 812 q 746 488 746 621 q 722 288 746 378 q 774 200 760 269 q 705 233 751 237 q 646 120 682 171 q 395 -22 547 -22 q 144 119 242 -22 q 115 166 127 142 q 133 19 106 80 q 47 411 54 122 m 361 1152 l 437 1152 l 584 971 l 541 971 q 399 1086 481 1058 q 249 971 316 1059 l 213 971 l 361 1152 z "},"":{"ha":790,"x_min":45,"x_max":774,"o":"m 286 914 q 253 850 266 888 q 214 488 214 734 l 214 475 q 251 365 222 400 q 229 229 228 292 q 253 125 238 169 q 396 9 292 9 q 549 125 500 9 q 583 254 571 177 q 542 338 581 304 q 599 486 585 387 l 599 488 q 550 850 599 734 q 528 892 540 873 q 490 859 521 867 q 466 945 497 933 q 381 927 396 974 q 286 914 325 949 m 47 411 q 45 488 45 448 q 143 856 45 714 q 395 997 242 997 q 647 855 547 997 q 680 800 665 829 q 688 861 686 825 q 711 724 708 812 q 746 488 746 621 q 722 288 746 378 q 774 200 760 269 q 705 233 751 237 q 646 120 682 171 q 395 -22 547 -22 q 144 119 242 -22 q 115 166 127 142 q 133 19 106 80 q 47 411 54 122 m 495 1058 q 544 1072 519 1059 q 606 1120 570 1087 l 606 1068 q 550 1021 576 1039 q 497 1002 525 1002 q 468 1010 485 1002 q 435 1025 451 1018 q 410 1037 427 1029 q 335 1064 363 1059 q 333 1040 338 1052 q 283 1057 306 1058 q 269 1050 277 1055 q 208 1002 243 1036 l 208 1055 q 264 1104 238 1084 q 315 1124 290 1124 q 352 1114 332 1124 q 407 1086 373 1103 q 417 1082 410 1085 q 438 1072 428 1076 q 539 1090 479 1066 q 495 1058 526 1071 z "},"":{"ha":790,"x_min":45,"x_max":774,"o":"m 286 914 q 253 850 266 888 q 214 488 214 734 l 214 475 q 251 365 222 400 q 229 229 228 292 q 253 125 238 169 q 396 9 292 9 q 549 125 500 9 q 583 254 571 177 q 542 338 581 304 q 599 486 585 387 l 599 488 q 550 850 599 734 q 528 892 540 873 q 490 859 521 867 q 466 945 497 933 q 381 927 396 974 q 286 914 325 949 m 47 411 q 45 488 45 448 q 143 856 45 714 q 395 997 242 997 q 647 855 547 997 q 680 800 665 829 q 688 861 686 825 q 711 724 708 812 q 746 488 746 621 q 722 288 746 378 q 774 200 760 269 q 705 233 751 237 q 646 120 682 171 q 395 -22 547 -22 q 144 119 242 -22 q 115 166 127 142 q 133 19 106 80 q 47 411 54 122 m 260 1092 l 260 1059 q 273 1023 260 1031 q 318 1015 286 1015 q 365 1024 352 1015 q 378 1059 378 1033 l 378 1092 q 365 1127 378 1118 q 318 1137 352 1137 q 273 1127 286 1137 q 260 1092 260 1118 m 433 1092 l 433 1059 q 446 1023 433 1031 q 491 1015 458 1015 q 538 1024 525 1015 q 551 1059 551 1033 l 551 1092 q 538 1127 551 1118 q 491 1137 525 1137 q 446 1127 458 1137 q 433 1092 433 1118 z "},"":{"ha":1157,"x_min":242,"x_max":906,"o":"m 461 440 q 334 507 402 494 q 405 511 352 522 l 270 681 l 328 736 l 617 505 l 842 738 l 906 670 l 841 608 q 762 493 800 561 q 677 452 711 479 l 673 448 l 888 148 l 831 93 l 557 338 l 316 89 l 242 167 l 499 393 l 461 440 z "},"":{"ha":790,"x_min":45,"x_max":774,"o":"m 286 914 q 253 850 266 888 q 214 488 214 734 l 214 475 q 251 365 222 400 q 229 229 228 292 q 253 125 238 169 q 396 9 292 9 q 549 125 500 9 q 583 254 571 177 q 542 338 581 304 q 599 486 585 387 l 599 488 q 550 850 599 734 q 528 892 540 873 q 490 859 521 867 q 466 945 497 933 q 381 927 396 974 q 286 914 325 949 m 47 411 q 45 488 45 448 q 143 856 45 714 q 395 997 242 997 q 647 855 547 997 q 680 800 665 829 q 688 861 686 825 q 711 724 708 812 q 746 488 746 621 q 722 288 746 378 q 774 200 760 269 q 705 233 751 237 q 646 120 682 171 q 395 -22 547 -22 q 144 119 242 -22 q 115 166 127 142 q 133 19 106 80 q 47 411 54 122 m 485 1120 l 574 1145 l 317 -138 l 250 -158 l 485 1120 z "},"":{"ha":823,"x_min":11,"x_max":810,"o":"m 279 121 q 304 75 290 94 q 449 20 348 20 q 603 77 557 20 q 648 290 648 135 q 637 470 648 395 q 576 572 626 545 q 648 536 625 572 l 648 777 q 620 914 648 875 q 529 923 591 953 l 543 974 l 796 974 l 810 923 q 718 913 745 951 q 690 775 690 875 l 690 288 q 629 49 690 120 q 427 -22 567 -22 q 272 8 335 -22 q 171 102 208 39 q 142 181 151 136 q 134 323 134 226 l 134 523 q 107 582 127 568 q 127 635 124 594 q 94 798 134 764 q 125 876 122 838 q 96 882 115 871 q 117 926 127 903 q 111 934 114 930 q 11 923 88 957 l 24 974 l 370 974 l 383 923 q 284 934 307 957 q 261 863 261 911 l 261 271 q 340 158 273 183 q 278 159 309 148 q 219 229 237 175 q 279 121 228 155 m 264 1066 q 286 1149 241 1149 q 315 1143 303 1149 q 342 1115 327 1136 l 476 944 l 435 944 l 264 1066 z "},"":{"ha":823,"x_min":11,"x_max":810,"o":"m 279 121 q 304 75 290 94 q 449 20 348 20 q 603 77 557 20 q 648 290 648 135 q 637 470 648 395 q 576 572 626 545 q 648 536 625 572 l 648 777 q 620 914 648 875 q 529 923 591 953 l 543 974 l 796 974 l 810 923 q 718 913 745 951 q 690 775 690 875 l 690 288 q 629 49 690 120 q 427 -22 567 -22 q 272 8 335 -22 q 171 102 208 39 q 142 181 151 136 q 134 323 134 226 l 134 523 q 107 582 127 568 q 127 635 124 594 q 94 798 134 764 q 125 876 122 838 q 96 882 115 871 q 117 926 127 903 q 111 934 114 930 q 11 923 88 957 l 24 974 l 370 974 l 383 923 q 284 934 307 957 q 261 863 261 911 l 261 271 q 340 158 273 183 q 278 159 309 148 q 219 229 237 175 q 279 121 228 155 m 600 1066 l 429 944 l 388 944 l 522 1115 q 549 1143 537 1136 q 578 1149 561 1149 q 600 1066 623 1149 z "},"":{"ha":823,"x_min":11,"x_max":810,"o":"m 279 121 q 304 75 290 94 q 449 20 348 20 q 603 77 557 20 q 648 290 648 135 q 637 470 648 395 q 576 572 626 545 q 648 536 625 572 l 648 777 q 620 914 648 875 q 529 923 591 953 l 543 974 l 796 974 l 810 923 q 718 913 745 951 q 690 775 690 875 l 690 288 q 629 49 690 120 q 427 -22 567 -22 q 272 8 335 -22 q 171 102 208 39 q 142 181 151 136 q 134 323 134 226 l 134 523 q 107 582 127 568 q 127 635 124 594 q 94 798 134 764 q 125 876 122 838 q 96 882 115 871 q 117 926 127 903 q 111 934 114 930 q 11 923 88 957 l 24 974 l 370 974 l 383 923 q 284 934 307 957 q 261 863 261 911 l 261 271 q 340 158 273 183 q 278 159 309 148 q 219 229 237 175 q 279 121 228 155 m 387 1152 l 463 1152 l 610 971 l 567 971 q 425 1086 507 1058 q 275 971 341 1059 l 239 971 l 387 1152 z "},"":{"ha":823,"x_min":11,"x_max":810,"o":"m 279 121 q 304 75 290 94 q 449 20 348 20 q 603 77 557 20 q 648 290 648 135 q 637 470 648 395 q 576 572 626 545 q 648 536 625 572 l 648 777 q 620 914 648 875 q 529 923 591 953 l 543 974 l 796 974 l 810 923 q 718 913 745 951 q 690 775 690 875 l 690 288 q 629 49 690 120 q 427 -22 567 -22 q 272 8 335 -22 q 171 102 208 39 q 142 181 151 136 q 134 323 134 226 l 134 523 q 107 582 127 568 q 127 635 124 594 q 94 798 134 764 q 125 876 122 838 q 96 882 115 871 q 117 926 127 903 q 111 934 114 930 q 11 923 88 957 l 24 974 l 370 974 l 383 923 q 284 934 307 957 q 261 863 261 911 l 261 271 q 340 158 273 183 q 278 159 309 148 q 219 229 237 175 q 279 121 228 155 m 301 1092 l 301 1059 q 314 1023 301 1031 q 359 1015 327 1015 q 406 1024 393 1015 q 419 1059 419 1033 l 419 1092 q 406 1127 419 1118 q 359 1137 393 1137 q 314 1127 327 1137 q 301 1092 301 1118 m 474 1092 l 474 1059 q 487 1023 474 1031 q 532 1015 500 1015 q 579 1024 566 1015 q 592 1059 592 1033 l 592 1092 q 579 1127 592 1118 q 532 1137 566 1137 q 487 1127 500 1137 q 474 1092 474 1118 z "},"":{"ha":714,"x_min":-7,"x_max":749,"o":"m 586 786 l 582 778 l 465 605 q 459 446 422 498 q 433 239 441 389 l 431 113 q 457 41 431 64 q 559 45 483 18 l 546 0 l 199 0 l 186 45 q 290 41 264 18 q 313 83 307 56 q 275 374 317 161 q 306 447 304 395 q 286 485 302 469 q 307 558 305 522 l 304 555 q 249 519 279 524 q 189 677 288 603 q 136 802 180 718 q 28 914 85 905 q 71 918 46 924 q 60 933 64 926 q -7 943 41 957 l 7 974 l 277 974 l 290 943 q 239 942 254 957 q 225 905 225 926 q 226 899 225 902 q 267 861 233 867 q 416 609 268 823 l 550 807 q 563 849 558 828 q 567 886 567 870 q 548 936 567 916 q 486 943 530 957 l 500 974 l 735 974 l 749 943 q 661 912 690 954 q 632 869 648 895 q 620 746 602 804 q 586 786 594 758 m 555 1066 l 385 944 l 343 944 l 477 1115 q 504 1143 492 1136 q 534 1149 516 1149 q 555 1066 578 1149 z "},"":{"ha":760,"x_min":0,"x_max":0,"o":""},"":{"ha":848,"x_min":0,"x_max":0,"o":""},"":{"ha":689,"x_min":-27,"x_max":722,"o":"m 294 663 l 216 381 q 290 385 245 397 q 216 345 223 378 q 254 311 209 311 l 425 311 q 382 401 416 372 q 388 480 393 415 l 317 744 l 311 724 q 309 642 319 669 q 294 663 306 660 m 446 262 l 441 267 l 191 267 q 170 217 179 243 l 150 144 q 145 116 146 130 q 143 92 143 102 q 164 39 143 60 q 243 41 184 18 l 231 0 l -15 0 l -27 41 q 69 59 36 16 q 124 180 102 102 q 256 877 296 860 q 357 873 305 890 l 400 878 q 414 798 406 833 l 487 538 q 545 429 519 460 q 541 372 534 394 q 605 300 564 304 q 601 135 581 198 q 639 50 621 72 q 722 41 662 20 l 710 0 l 409 0 l 397 41 q 471 36 451 18 q 491 81 491 55 q 489 105 491 92 q 481 138 487 118 l 476 152 q 436 209 460 197 q 371 216 412 220 q 453 236 404 248 q 523 145 503 224 q 447 262 514 236 l 446 262 m 155 992 q 176 1076 132 1076 q 206 1069 194 1076 q 233 1041 218 1062 l 367 870 l 326 870 l 155 992 z "},"":{"ha":689,"x_min":-27,"x_max":722,"o":"m 294 663 l 216 381 q 290 385 245 397 q 216 345 223 378 q 254 311 209 311 l 425 311 q 382 401 416 372 q 388 480 393 415 l 317 744 l 311 724 q 309 642 319 669 q 294 663 306 660 m 446 262 l 441 267 l 191 267 q 170 217 179 243 l 150 144 q 145 116 146 130 q 143 92 143 102 q 164 39 143 60 q 243 41 184 18 l 231 0 l -15 0 l -27 41 q 69 59 36 16 q 124 180 102 102 q 256 877 296 860 q 357 873 305 890 l 400 878 q 414 798 406 833 l 487 538 q 545 429 519 460 q 541 372 534 394 q 605 300 564 304 q 601 135 581 198 q 639 50 621 72 q 722 41 662 20 l 710 0 l 409 0 l 397 41 q 471 36 451 18 q 491 81 491 55 q 489 105 491 92 q 481 138 487 118 l 476 152 q 436 209 460 197 q 371 216 412 220 q 453 236 404 248 q 523 145 503 224 q 447 262 514 236 l 446 262 m 523 998 l 353 876 l 311 876 l 445 1047 q 472 1075 460 1068 q 502 1082 484 1082 q 523 998 546 1082 z "},"":{"ha":689,"x_min":-27,"x_max":722,"o":"m 294 663 l 216 381 q 290 385 245 397 q 216 345 223 378 q 254 311 209 311 l 425 311 q 382 401 416 372 q 388 480 393 415 l 317 744 l 311 724 q 309 642 319 669 q 294 663 306 660 m 446 262 l 441 267 l 191 267 q 170 217 179 243 l 150 144 q 145 116 146 130 q 143 92 143 102 q 164 39 143 60 q 243 41 184 18 l 231 0 l -15 0 l -27 41 q 69 59 36 16 q 124 180 102 102 q 256 877 296 860 q 357 873 305 890 l 400 878 q 414 798 406 833 l 487 538 q 545 429 519 460 q 541 372 534 394 q 605 300 564 304 q 601 135 581 198 q 639 50 621 72 q 722 41 662 20 l 710 0 l 409 0 l 397 41 q 471 36 451 18 q 491 81 491 55 q 489 105 491 92 q 481 138 487 118 l 476 152 q 436 209 460 197 q 371 216 412 220 q 453 236 404 248 q 523 145 503 224 q 447 262 514 236 l 446 262 m 307 1084 l 382 1084 l 530 904 l 487 904 q 345 1019 427 991 q 194 904 261 991 l 159 904 l 307 1084 z "},"":{"ha":689,"x_min":-27,"x_max":722,"o":"m 294 663 l 216 381 q 290 385 245 397 q 216 345 223 378 q 254 311 209 311 l 425 311 q 382 401 416 372 q 388 480 393 415 l 317 744 l 311 724 q 309 642 319 669 q 294 663 306 660 m 446 262 l 441 267 l 191 267 q 170 217 179 243 l 150 144 q 145 116 146 130 q 143 92 143 102 q 164 39 143 60 q 243 41 184 18 l 231 0 l -15 0 l -27 41 q 69 59 36 16 q 124 180 102 102 q 256 877 296 860 q 357 873 305 890 l 400 878 q 414 798 406 833 l 487 538 q 545 429 519 460 q 541 372 534 394 q 605 300 564 304 q 601 135 581 198 q 639 50 621 72 q 722 41 662 20 l 710 0 l 409 0 l 397 41 q 471 36 451 18 q 491 81 491 55 q 489 105 491 92 q 481 138 487 118 l 476 152 q 436 209 460 197 q 371 216 412 220 q 453 236 404 248 q 523 145 503 224 q 447 262 514 236 l 446 262 m 448 991 q 496 1005 471 991 q 558 1053 524 1020 l 558 1000 q 503 954 528 972 q 450 935 477 935 q 420 943 437 935 q 388 957 404 950 q 362 970 379 961 q 288 997 315 992 q 286 973 292 985 q 236 990 258 991 q 222 983 229 987 q 160 935 195 968 l 160 987 q 216 1037 191 1017 q 268 1057 242 1057 q 306 1046 285 1057 q 359 1019 326 1035 q 370 1014 363 1018 q 391 1004 381 1008 q 492 1023 431 998 q 448 991 478 1004 z "},"":{"ha":689,"x_min":-27,"x_max":722,"o":"m 294 663 l 216 381 q 290 385 245 397 q 216 345 223 378 q 254 311 209 311 l 425 311 q 382 401 416 372 q 388 480 393 415 l 317 744 l 311 724 q 309 642 319 669 q 294 663 306 660 m 446 262 l 441 267 l 191 267 q 170 217 179 243 l 150 144 q 145 116 146 130 q 143 92 143 102 q 164 39 143 60 q 243 41 184 18 l 231 0 l -15 0 l -27 41 q 69 59 36 16 q 124 180 102 102 q 256 877 296 860 q 357 873 305 890 l 400 878 q 414 798 406 833 l 487 538 q 545 429 519 460 q 541 372 534 394 q 605 300 564 304 q 601 135 581 198 q 639 50 621 72 q 722 41 662 20 l 710 0 l 409 0 l 397 41 q 471 36 451 18 q 491 81 491 55 q 489 105 491 92 q 481 138 487 118 l 476 152 q 436 209 460 197 q 371 216 412 220 q 453 236 404 248 q 523 145 503 224 q 447 262 514 236 l 446 262 m 192 1024 l 192 991 q 205 956 192 964 q 250 947 218 947 q 297 956 284 947 q 310 991 310 966 l 310 1024 q 297 1060 310 1050 q 250 1069 284 1069 q 205 1060 218 1069 q 192 1024 192 1050 m 365 1024 l 365 991 q 378 956 365 964 q 423 947 391 947 q 470 956 457 947 q 483 991 483 966 l 483 1024 q 470 1060 483 1050 q 423 1069 457 1069 q 378 1060 391 1069 q 365 1024 365 1050 z "},"":{"ha":689,"x_min":-27,"x_max":722,"o":"m 294 663 l 216 381 q 290 385 245 397 q 216 345 223 378 q 254 311 209 311 l 425 311 q 382 401 416 372 q 388 480 393 415 l 317 744 l 311 724 q 309 642 319 669 q 294 663 306 660 m 446 262 l 441 267 l 191 267 q 170 217 179 243 l 150 144 q 145 116 146 130 q 143 92 143 102 q 164 39 143 60 q 243 41 184 18 l 231 0 l -15 0 l -27 41 q 69 59 36 16 q 124 180 102 102 q 256 877 296 860 q 357 873 305 890 l 400 878 q 414 798 406 833 l 487 538 q 545 429 519 460 q 541 372 534 394 q 605 300 564 304 q 601 135 581 198 q 639 50 621 72 q 722 41 662 20 l 710 0 l 409 0 l 397 41 q 471 36 451 18 q 491 81 491 55 q 489 105 491 92 q 481 138 487 118 l 476 152 q 436 209 460 197 q 371 216 412 220 q 453 236 404 248 q 523 145 503 224 q 447 262 514 236 l 446 262 m 282 994 l 282 951 q 294 904 282 916 q 334 892 305 892 q 376 905 365 892 q 388 951 388 917 l 388 994 q 376 1041 388 1029 q 334 1053 365 1053 q 294 1041 305 1053 q 282 994 282 1029 m 438 912 l 430 905 q 334 877 391 877 q 240 905 279 877 q 201 976 201 932 q 240 1047 201 1019 q 334 1075 278 1075 q 430 1047 391 1075 q 468 976 468 1019 q 467 964 468 970 q 503 909 472 927 q 438 912 450 904 z "},"":{"ha":1086,"x_min":-14,"x_max":1054,"o":"m 522 257 q 516 260 519 258 l 515 260 l 512 265 l 263 265 q 229 215 245 241 l 190 143 q 176 115 182 129 q 168 92 171 102 q 174 39 159 60 q 254 40 189 18 l 230 0 l -14 0 l -14 40 q 86 59 41 16 q 174 179 130 101 q 496 869 531 852 q 594 866 547 883 l 638 871 q 637 863 638 867 l 652 865 q 800 902 772 872 q 783 865 796 880 l 1024 865 q 1017 589 989 777 l 964 577 q 966 817 1000 788 q 756 836 932 845 l 759 825 q 677 826 697 844 q 661 802 667 817 q 664 785 660 793 q 667 777 666 780 q 663 766 669 773 q 659 742 659 761 q 679 697 660 722 q 651 573 659 671 q 798 615 781 575 q 819 736 816 654 l 847 724 q 836 595 838 661 q 874 460 838 509 q 837 477 853 467 q 847 380 840 429 l 819 368 q 799 500 816 454 q 692 544 784 537 q 651 545 673 545 l 650 529 q 682 530 666 542 q 655 433 664 519 l 659 426 q 654 416 656 421 q 648 324 650 377 q 684 298 660 300 q 646 210 659 250 l 644 99 q 808 27 644 21 q 987 91 971 34 q 1003 296 1003 149 l 1044 309 q 1022 149 1028 219 q 1054 59 1024 88 q 1019 61 1035 47 q 1023 0 1019 27 l 407 0 l 406 40 q 478 36 453 18 q 510 80 503 55 q 515 104 513 92 q 516 137 516 117 l 515 151 q 491 207 511 196 q 428 214 470 218 q 515 234 469 245 q 523 231 519 233 q 522 257 522 244 m 509 442 q 482 625 496 608 q 515 732 523 646 l 509 718 q 483 636 501 663 q 474 657 485 654 l 319 378 q 393 382 353 393 q 310 342 326 375 q 338 309 294 309 l 507 309 q 490 398 515 368 q 509 442 500 408 z "},"":{"ha":614,"x_min":0,"x_max":0,"o":""},"":{"ha":680,"x_min":31,"x_max":677,"o":"m 641 62 q 645 0 641 28 l 49 0 l 37 40 q 121 39 100 22 q 141 101 141 56 q 93 638 119 606 q 123 783 142 664 q 117 793 116 789 q 121 802 119 796 q 121 827 127 813 q 109 844 116 838 q 31 843 88 861 l 43 883 l 267 883 q 417 921 389 891 q 400 883 414 898 l 646 883 q 639 602 610 793 l 585 589 q 587 834 622 805 q 372 854 553 863 l 376 843 q 292 844 312 861 q 276 819 281 834 q 278 802 275 810 q 282 793 281 796 q 277 783 283 789 q 274 758 273 777 q 294 712 275 738 q 265 585 273 686 q 416 628 397 587 q 436 752 434 668 l 465 740 q 454 608 456 675 q 494 471 456 520 q 455 487 472 477 q 465 389 458 438 l 436 376 q 416 510 434 464 q 308 555 401 549 q 265 556 288 556 l 264 541 q 297 541 281 553 q 261 229 262 521 l 258 101 q 425 28 258 22 q 609 93 592 35 q 625 302 625 152 l 666 315 q 644 152 650 224 q 677 60 646 90 q 641 62 657 47 m 226 998 q 247 1082 203 1082 q 276 1075 264 1082 q 304 1047 288 1068 l 437 876 l 396 876 l 226 998 z "},"":{"ha":680,"x_min":31,"x_max":677,"o":"m 641 62 q 645 0 641 28 l 49 0 l 37 40 q 121 39 100 22 q 141 101 141 56 q 93 638 119 606 q 123 783 142 664 q 117 793 116 789 q 121 802 119 796 q 121 827 127 813 q 109 844 116 838 q 31 843 88 861 l 43 883 l 267 883 q 417 921 389 891 q 400 883 414 898 l 646 883 q 639 602 610 793 l 585 589 q 587 834 622 805 q 372 854 553 863 l 376 843 q 292 844 312 861 q 276 819 281 834 q 278 802 275 810 q 282 793 281 796 q 277 783 283 789 q 274 758 273 777 q 294 712 275 738 q 265 585 273 686 q 416 628 397 587 q 436 752 434 668 l 465 740 q 454 608 456 675 q 494 471 456 520 q 455 487 472 477 q 465 389 458 438 l 436 376 q 416 510 434 464 q 308 555 401 549 q 265 556 288 556 l 264 541 q 297 541 281 553 q 261 229 262 521 l 258 101 q 425 28 258 22 q 609 93 592 35 q 625 302 625 152 l 666 315 q 644 152 650 224 q 677 60 646 90 q 641 62 657 47 m 500 998 l 330 876 l 288 876 l 422 1047 q 449 1075 437 1068 q 479 1082 461 1082 q 500 998 523 1082 z "},"":{"ha":680,"x_min":31,"x_max":677,"o":"m 641 62 q 645 0 641 28 l 49 0 l 37 40 q 121 39 100 22 q 141 101 141 56 q 93 638 119 606 q 123 783 142 664 q 117 793 116 789 q 121 802 119 796 q 121 827 127 813 q 109 844 116 838 q 31 843 88 861 l 43 883 l 267 883 q 417 921 389 891 q 400 883 414 898 l 646 883 q 639 602 610 793 l 585 589 q 587 834 622 805 q 372 854 553 863 l 376 843 q 292 844 312 861 q 276 819 281 834 q 278 802 275 810 q 282 793 281 796 q 277 783 283 789 q 274 758 273 777 q 294 712 275 738 q 265 585 273 686 q 416 628 397 587 q 436 752 434 668 l 465 740 q 454 608 456 675 q 494 471 456 520 q 455 487 472 477 q 465 389 458 438 l 436 376 q 416 510 434 464 q 308 555 401 549 q 265 556 288 556 l 264 541 q 297 541 281 553 q 261 229 262 521 l 258 101 q 425 28 258 22 q 609 93 592 35 q 625 302 625 152 l 666 315 q 644 152 650 224 q 677 60 646 90 q 641 62 657 47 m 322 1084 l 399 1084 l 546 904 l 503 904 q 361 1019 444 991 q 210 904 277 991 l 175 904 l 322 1084 z "},"":{"ha":680,"x_min":31,"x_max":677,"o":"m 641 62 q 645 0 641 28 l 49 0 l 37 40 q 121 39 100 22 q 141 101 141 56 q 93 638 119 606 q 123 783 142 664 q 117 793 116 789 q 121 802 119 796 q 121 827 127 813 q 109 844 116 838 q 31 843 88 861 l 43 883 l 267 883 q 417 921 389 891 q 400 883 414 898 l 646 883 q 639 602 610 793 l 585 589 q 587 834 622 805 q 372 854 553 863 l 376 843 q 292 844 312 861 q 276 819 281 834 q 278 802 275 810 q 282 793 281 796 q 277 783 283 789 q 274 758 273 777 q 294 712 275 738 q 265 585 273 686 q 416 628 397 587 q 436 752 434 668 l 465 740 q 454 608 456 675 q 494 471 456 520 q 455 487 472 477 q 465 389 458 438 l 436 376 q 416 510 434 464 q 308 555 401 549 q 265 556 288 556 l 264 541 q 297 541 281 553 q 261 229 262 521 l 258 101 q 425 28 258 22 q 609 93 592 35 q 625 302 625 152 l 666 315 q 644 152 650 224 q 677 60 646 90 q 641 62 657 47 m 444 991 q 492 1005 467 991 q 553 1053 519 1020 l 553 1000 q 498 954 524 972 q 446 935 473 935 q 416 943 433 935 q 384 957 399 950 q 358 970 374 961 q 283 997 311 992 q 281 973 287 985 q 231 990 254 991 q 218 983 225 987 q 156 935 191 968 l 156 987 q 212 1037 186 1017 q 264 1057 238 1057 q 301 1046 280 1057 q 355 1019 321 1035 q 366 1014 359 1018 q 387 1004 376 1008 q 488 1023 427 998 q 444 991 473 1004 z "},"":{"ha":391,"x_min":-9,"x_max":376,"o":"m 132 614 l 132 614 q 106 714 131 682 q 126 760 125 740 q 123 785 127 780 q 117 795 116 792 q 121 804 119 799 q 121 829 127 816 q 109 846 117 840 q 31 846 88 864 l 43 886 l 364 886 l 376 846 q 292 846 313 864 q 277 821 282 837 q 279 804 275 812 q 283 795 281 799 q 278 785 284 792 q 274 760 273 780 q 294 714 275 740 q 269 635 273 688 l 259 101 q 280 40 259 58 q 370 40 300 22 l 358 0 l 49 0 l 37 40 q 121 39 101 22 q 142 101 142 57 l 132 614 m 14 998 q 35 1082 -9 1082 q 65 1075 53 1082 q 92 1047 77 1068 l 226 876 l 184 876 l 14 998 z "},"":{"ha":391,"x_min":31,"x_max":414,"o":"m 132 614 l 132 614 q 106 714 131 682 q 126 760 125 740 q 123 785 127 780 q 117 795 116 792 q 121 804 119 799 q 121 829 127 816 q 109 846 117 840 q 31 846 88 864 l 43 886 l 364 886 l 376 846 q 292 846 313 864 q 277 821 282 837 q 279 804 275 812 q 283 795 281 799 q 278 785 284 792 q 274 760 273 780 q 294 714 275 740 q 269 635 273 688 l 259 101 q 280 40 259 58 q 370 40 300 22 l 358 0 l 49 0 l 37 40 q 121 39 101 22 q 142 101 142 57 l 132 614 m 391 998 l 221 876 l 180 876 l 313 1047 q 341 1075 329 1068 q 370 1082 353 1082 q 391 998 414 1082 z "},"":{"ha":391,"x_min":27,"x_max":398,"o":"m 132 614 l 132 614 q 106 714 131 682 q 126 760 125 740 q 123 785 127 780 q 117 795 116 792 q 121 804 119 799 q 121 829 127 816 q 109 846 117 840 q 31 846 88 864 l 43 886 l 364 886 l 376 846 q 292 846 313 864 q 277 821 282 837 q 279 804 275 812 q 283 795 281 799 q 278 785 284 792 q 274 760 273 780 q 294 714 275 740 q 269 635 273 688 l 259 101 q 280 40 259 58 q 370 40 300 22 l 358 0 l 49 0 l 37 40 q 121 39 101 22 q 142 101 142 57 l 132 614 m 175 1084 l 251 1084 l 398 904 l 355 904 q 213 1019 296 991 q 63 904 130 991 l 27 904 l 175 1084 z "},"":{"ha":391,"x_min":31,"x_max":376,"o":"m 132 614 l 132 614 q 106 714 131 682 q 126 760 125 740 q 123 785 127 780 q 117 795 116 792 q 121 804 119 799 q 121 829 127 816 q 109 846 117 840 q 31 846 88 864 l 43 886 l 364 886 l 376 846 q 292 846 313 864 q 277 821 282 837 q 279 804 275 812 q 283 795 281 799 q 278 785 284 792 q 274 760 273 780 q 294 714 275 740 q 269 635 273 688 l 259 101 q 280 40 259 58 q 370 40 300 22 l 358 0 l 49 0 l 37 40 q 121 39 101 22 q 142 101 142 57 l 132 614 m 58 1024 l 58 991 q 71 956 58 964 q 116 947 83 947 q 163 956 150 947 q 176 991 176 966 l 176 1024 q 163 1060 176 1050 q 116 1069 150 1069 q 71 1060 83 1069 q 58 1024 58 1050 m 231 1024 l 231 991 q 243 956 231 964 q 289 947 256 947 q 336 956 323 947 q 349 991 349 966 l 349 1024 q 336 1060 349 1050 q 289 1069 323 1069 q 243 1060 256 1069 q 231 1024 231 1050 z "},"":{"ha":772,"x_min":0,"x_max":0,"o":""},"":{"ha":753,"x_min":25,"x_max":747,"o":"m 126 829 q 121 840 124 835 q 28 836 107 867 l 40 882 l 187 882 q 230 882 211 884 l 244 882 l 245 881 q 320 833 310 873 q 311 763 281 816 q 369 727 344 758 q 328 736 342 740 q 389 671 358 692 q 434 533 399 602 l 595 237 l 595 712 q 572 829 595 795 q 486 836 549 864 l 498 882 l 734 882 l 747 836 q 659 830 682 865 q 640 781 646 812 q 685 813 654 812 q 635 541 635 754 l 635 -7 l 604 -7 l 471 236 q 288 421 376 376 q 366 410 332 426 l 302 495 l 289 552 q 218 601 258 600 q 175 774 207 692 l 175 531 q 184 359 174 451 q 246 369 196 366 q 187 189 188 339 q 203 68 187 119 q 284 47 220 17 l 272 -1 l 37 -1 l 25 47 q 114 52 92 17 q 136 184 136 87 l 136 727 q 98 705 122 706 q 126 829 138 748 m 477 991 q 526 1005 500 991 q 587 1053 552 1020 l 587 1000 q 531 954 557 972 q 479 935 506 935 q 449 943 466 935 q 416 957 432 950 q 391 970 408 961 q 316 997 345 992 q 315 973 320 985 q 264 990 288 991 q 251 983 258 987 q 189 935 224 968 l 189 987 q 245 1037 220 1017 q 297 1057 271 1057 q 334 1046 313 1057 q 389 1019 355 1035 q 399 1014 392 1018 q 420 1004 410 1008 q 521 1023 460 998 q 477 991 507 1004 z "},"":{"ha":715,"x_min":45,"x_max":697,"o":"m 260 815 q 231 757 242 792 q 196 433 196 654 l 196 422 q 229 324 203 355 q 210 203 208 258 q 231 110 218 149 q 359 6 265 6 q 496 110 452 6 q 526 224 515 156 q 489 300 524 270 q 540 433 528 343 l 540 433 q 496 757 540 654 q 476 795 487 778 q 443 765 471 772 q 421 843 449 832 q 345 827 359 868 q 260 815 295 846 m 47 365 q 45 433 45 398 q 133 763 45 636 q 357 889 221 889 q 583 762 494 889 q 613 713 600 739 q 620 768 618 735 q 641 645 637 724 q 671 433 671 553 q 650 255 671 336 q 697 176 684 238 q 635 205 676 210 q 583 105 614 151 q 357 -22 494 -22 q 134 104 221 -22 q 107 146 119 124 q 123 15 100 69 q 47 365 54 106 m 207 998 q 228 1082 184 1082 q 257 1075 245 1082 q 285 1047 269 1068 l 418 876 l 377 876 l 207 998 z "},"":{"ha":715,"x_min":45,"x_max":697,"o":"m 260 815 q 231 757 242 792 q 196 433 196 654 l 196 422 q 229 324 203 355 q 210 203 208 258 q 231 110 218 149 q 359 6 265 6 q 496 110 452 6 q 526 224 515 156 q 489 300 524 270 q 540 433 528 343 l 540 433 q 496 757 540 654 q 476 795 487 778 q 443 765 471 772 q 421 843 449 832 q 345 827 359 868 q 260 815 295 846 m 47 365 q 45 433 45 398 q 133 763 45 636 q 357 889 221 889 q 583 762 494 889 q 613 713 600 739 q 620 768 618 735 q 641 645 637 724 q 671 433 671 553 q 650 255 671 336 q 697 176 684 238 q 635 205 676 210 q 583 105 614 151 q 357 -22 494 -22 q 134 104 221 -22 q 107 146 119 124 q 123 15 100 69 q 47 365 54 106 m 500 998 l 330 876 l 288 876 l 422 1047 q 449 1075 437 1068 q 479 1082 461 1082 q 500 998 523 1082 z "},"":{"ha":715,"x_min":45,"x_max":697,"o":"m 260 815 q 231 757 242 792 q 196 433 196 654 l 196 422 q 229 324 203 355 q 210 203 208 258 q 231 110 218 149 q 359 6 265 6 q 496 110 452 6 q 526 224 515 156 q 489 300 524 270 q 540 433 528 343 l 540 433 q 496 757 540 654 q 476 795 487 778 q 443 765 471 772 q 421 843 449 832 q 345 827 359 868 q 260 815 295 846 m 47 365 q 45 433 45 398 q 133 763 45 636 q 357 889 221 889 q 583 762 494 889 q 613 713 600 739 q 620 768 618 735 q 641 645 637 724 q 671 433 671 553 q 650 255 671 336 q 697 176 684 238 q 635 205 676 210 q 583 105 614 151 q 357 -22 494 -22 q 134 104 221 -22 q 107 146 119 124 q 123 15 100 69 q 47 365 54 106 m 338 1084 l 414 1084 l 562 904 l 519 904 q 376 1019 459 991 q 227 904 294 991 l 191 904 l 338 1084 z "},"":{"ha":715,"x_min":45,"x_max":697,"o":"m 260 815 q 231 757 242 792 q 196 433 196 654 l 196 422 q 229 324 203 355 q 210 203 208 258 q 231 110 218 149 q 359 6 265 6 q 496 110 452 6 q 526 224 515 156 q 489 300 524 270 q 540 433 528 343 l 540 433 q 496 757 540 654 q 476 795 487 778 q 443 765 471 772 q 421 843 449 832 q 345 827 359 868 q 260 815 295 846 m 47 365 q 45 433 45 398 q 133 763 45 636 q 357 889 221 889 q 583 762 494 889 q 613 713 600 739 q 620 768 618 735 q 641 645 637 724 q 671 433 671 553 q 650 255 671 336 q 697 176 684 238 q 635 205 676 210 q 583 105 614 151 q 357 -22 494 -22 q 134 104 221 -22 q 107 146 119 124 q 123 15 100 69 q 47 365 54 106 m 445 991 q 493 1005 468 991 q 555 1053 520 1020 l 555 1000 q 499 954 525 972 q 447 935 474 935 q 417 943 434 935 q 385 957 400 950 q 359 970 376 961 q 284 997 313 992 q 283 973 288 985 q 233 990 255 991 q 219 983 226 987 q 157 935 193 968 l 157 987 q 213 1037 188 1017 q 264 1057 239 1057 q 302 1046 281 1057 q 356 1019 323 1035 q 367 1014 360 1018 q 387 1004 378 1008 q 489 1023 428 998 q 445 991 475 1004 z "},"":{"ha":715,"x_min":45,"x_max":697,"o":"m 260 815 q 231 757 242 792 q 196 433 196 654 l 196 422 q 229 324 203 355 q 210 203 208 258 q 231 110 218 149 q 359 6 265 6 q 496 110 452 6 q 526 224 515 156 q 489 300 524 270 q 540 433 528 343 l 540 433 q 496 757 540 654 q 476 795 487 778 q 443 765 471 772 q 421 843 449 832 q 345 827 359 868 q 260 815 295 846 m 47 365 q 45 433 45 398 q 133 763 45 636 q 357 889 221 889 q 583 762 494 889 q 613 713 600 739 q 620 768 618 735 q 641 645 637 724 q 671 433 671 553 q 650 255 671 336 q 697 176 684 238 q 635 205 676 210 q 583 105 614 151 q 357 -22 494 -22 q 134 104 221 -22 q 107 146 119 124 q 123 15 100 69 q 47 365 54 106 m 208 1024 l 208 991 q 221 956 208 964 q 267 947 234 947 q 313 956 300 947 q 326 991 326 966 l 326 1024 q 313 1060 326 1050 q 267 1069 300 1069 q 221 1060 234 1069 q 208 1024 208 1050 m 381 1024 l 381 991 q 394 956 381 964 q 439 947 407 947 q 486 956 473 947 q 499 991 499 966 l 499 1024 q 486 1060 499 1050 q 439 1069 473 1069 q 394 1060 407 1069 q 381 1024 381 1050 z "},"":{"ha":1157,"x_min":172,"x_max":985,"o":"m 619 346 q 342 301 399 342 q 388 355 345 325 l 172 375 l 172 454 l 539 505 q 619 512 623 555 l 619 505 l 985 454 l 985 375 l 619 346 z "},"":{"ha":715,"x_min":45,"x_max":697,"o":"m 260 815 q 231 757 242 792 q 196 433 196 654 l 196 422 q 229 324 203 355 q 210 203 208 258 q 231 110 218 149 q 359 6 265 6 q 496 110 452 6 q 526 224 515 156 q 489 300 524 270 q 540 433 528 343 l 540 433 q 496 757 540 654 q 476 795 487 778 q 443 765 471 772 q 421 843 449 832 q 345 827 359 868 q 260 815 295 846 m 47 365 q 45 433 45 398 q 133 763 45 636 q 357 889 221 889 q 583 762 494 889 q 613 713 600 739 q 620 768 618 735 q 641 645 637 724 q 671 433 671 553 q 650 255 671 336 q 697 176 684 238 q 635 205 676 210 q 583 105 614 151 q 357 -22 494 -22 q 134 104 221 -22 q 107 146 119 124 q 123 15 100 69 q 47 365 54 106 m 443 966 l 532 988 l 275 -141 l 208 -158 l 443 966 z "},"":{"ha":751,"x_min":11,"x_max":734,"o":"m 254 108 q 277 66 263 83 q 408 16 316 16 q 547 68 505 16 q 589 261 589 120 q 578 424 589 356 q 523 516 568 492 q 589 484 568 517 l 589 701 q 563 826 589 791 q 480 834 537 861 l 492 880 l 722 880 l 734 834 q 651 825 676 859 q 627 701 627 791 l 627 258 q 571 42 627 106 q 387 -22 515 -22 q 247 5 304 -22 q 156 90 190 33 q 130 162 138 121 q 122 291 122 203 l 122 471 q 98 525 116 513 q 116 574 113 536 q 86 720 123 690 q 115 791 112 758 q 87 797 105 787 q 107 838 116 817 q 102 844 104 841 q 11 834 81 865 l 23 880 l 336 880 l 348 834 q 258 844 279 865 q 237 779 237 823 l 237 243 q 309 141 249 164 q 253 142 281 132 q 199 205 216 157 q 254 108 208 138 m 220 998 q 241 1082 197 1082 q 270 1075 258 1082 q 298 1047 282 1068 l 431 876 l 390 876 l 220 998 z "},"":{"ha":751,"x_min":11,"x_max":734,"o":"m 254 108 q 277 66 263 83 q 408 16 316 16 q 547 68 505 16 q 589 261 589 120 q 578 424 589 356 q 523 516 568 492 q 589 484 568 517 l 589 701 q 563 826 589 791 q 480 834 537 861 l 492 880 l 722 880 l 734 834 q 651 825 676 859 q 627 701 627 791 l 627 258 q 571 42 627 106 q 387 -22 515 -22 q 247 5 304 -22 q 156 90 190 33 q 130 162 138 121 q 122 291 122 203 l 122 471 q 98 525 116 513 q 116 574 113 536 q 86 720 123 690 q 115 791 112 758 q 87 797 105 787 q 107 838 116 817 q 102 844 104 841 q 11 834 81 865 l 23 880 l 336 880 l 348 834 q 258 844 279 865 q 237 779 237 823 l 237 243 q 309 141 249 164 q 253 142 281 132 q 199 205 216 157 q 254 108 208 138 m 577 998 l 407 876 l 366 876 l 499 1047 q 527 1075 515 1068 q 556 1082 538 1082 q 577 998 600 1082 z "},"":{"ha":751,"x_min":11,"x_max":734,"o":"m 254 108 q 277 66 263 83 q 408 16 316 16 q 547 68 505 16 q 589 261 589 120 q 578 424 589 356 q 523 516 568 492 q 589 484 568 517 l 589 701 q 563 826 589 791 q 480 834 537 861 l 492 880 l 722 880 l 734 834 q 651 825 676 859 q 627 701 627 791 l 627 258 q 571 42 627 106 q 387 -22 515 -22 q 247 5 304 -22 q 156 90 190 33 q 130 162 138 121 q 122 291 122 203 l 122 471 q 98 525 116 513 q 116 574 113 536 q 86 720 123 690 q 115 791 112 758 q 87 797 105 787 q 107 838 116 817 q 102 844 104 841 q 11 834 81 865 l 23 880 l 336 880 l 348 834 q 258 844 279 865 q 237 779 237 823 l 237 243 q 309 141 249 164 q 253 142 281 132 q 199 205 216 157 q 254 108 208 138 m 351 1084 l 427 1084 l 574 904 l 532 904 q 389 1019 472 991 q 239 904 306 991 l 203 904 l 351 1084 z "},"":{"ha":751,"x_min":11,"x_max":734,"o":"m 254 108 q 277 66 263 83 q 408 16 316 16 q 547 68 505 16 q 589 261 589 120 q 578 424 589 356 q 523 516 568 492 q 589 484 568 517 l 589 701 q 563 826 589 791 q 480 834 537 861 l 492 880 l 722 880 l 734 834 q 651 825 676 859 q 627 701 627 791 l 627 258 q 571 42 627 106 q 387 -22 515 -22 q 247 5 304 -22 q 156 90 190 33 q 130 162 138 121 q 122 291 122 203 l 122 471 q 98 525 116 513 q 116 574 113 536 q 86 720 123 690 q 115 791 112 758 q 87 797 105 787 q 107 838 116 817 q 102 844 104 841 q 11 834 81 865 l 23 880 l 336 880 l 348 834 q 258 844 279 865 q 237 779 237 823 l 237 243 q 309 141 249 164 q 253 142 281 132 q 199 205 216 157 q 254 108 208 138 m 231 1024 l 231 991 q 243 956 231 964 q 289 947 256 947 q 336 956 323 947 q 349 991 349 966 l 349 1024 q 336 1060 349 1050 q 289 1069 323 1069 q 243 1060 256 1069 q 231 1024 231 1050 m 404 1024 l 404 991 q 416 956 404 964 q 462 947 429 947 q 509 956 496 947 q 522 991 522 966 l 522 1024 q 509 1060 522 1050 q 462 1069 496 1069 q 416 1060 429 1069 q 404 1024 404 1050 z "},"":{"ha":651,"x_min":-7,"x_max":680,"o":"m 532 715 l 528 707 l 422 550 q 417 406 383 453 q 393 218 400 353 l 391 102 q 415 38 391 58 q 508 41 439 17 l 496 0 l 180 0 l 168 41 q 262 37 239 17 q 283 76 279 51 q 250 340 288 146 q 277 406 276 359 q 260 441 274 427 q 278 507 277 474 l 276 505 q 226 472 254 476 q 172 616 261 549 q 123 730 163 653 q 25 831 77 823 q 64 835 41 840 q 54 848 58 842 q -7 858 37 870 l 5 886 l 251 886 l 263 858 q 217 856 230 870 q 204 823 204 842 q 205 817 204 821 q 242 783 211 789 q 378 554 243 749 l 500 734 q 511 772 507 753 q 515 806 515 791 q 498 851 515 833 q 441 858 481 870 l 454 886 l 668 886 l 680 858 q 600 829 627 868 q 574 790 589 813 q 563 678 547 731 q 532 715 540 690 m 500 998 l 330 876 l 288 876 l 422 1047 q 449 1075 437 1068 q 479 1082 461 1082 q 500 998 523 1082 z "},"":{"ha":685,"x_min":0,"x_max":0,"o":""},"":{"ha":651,"x_min":-7,"x_max":680,"o":"m 532 715 l 528 707 l 422 550 q 417 406 383 453 q 393 218 400 353 l 391 102 q 415 38 391 58 q 508 41 439 17 l 496 0 l 180 0 l 168 41 q 262 37 239 17 q 283 76 279 51 q 250 340 288 146 q 277 406 276 359 q 260 441 274 427 q 278 507 277 474 l 276 505 q 226 472 254 476 q 172 616 261 549 q 123 730 163 653 q 25 831 77 823 q 64 835 41 840 q 54 848 58 842 q -7 858 37 870 l 5 886 l 251 886 l 263 858 q 217 856 230 870 q 204 823 204 842 q 205 817 204 821 q 242 783 211 789 q 378 554 243 749 l 500 734 q 511 772 507 753 q 515 806 515 791 q 498 851 515 833 q 441 858 481 870 l 454 886 l 668 886 l 680 858 q 600 829 627 868 q 574 790 589 813 q 563 678 547 731 q 532 715 540 690 z "},"":{"ha":349,"x_min":0,"x_max":0,"o":""},"":{"ha":667,"x_min":136,"x_max":507,"o":"m 284 991 l 360 991 l 507 811 l 465 811 q 322 926 405 898 q 172 811 239 899 l 136 811 l 284 991 z "},"":{"ha":667,"x_min":136,"x_max":507,"o":"m 284 811 l 136 991 l 172 991 q 322 876 239 904 q 465 991 405 905 l 507 991 l 360 811 l 284 811 z "},"":{"ha":694,"x_min":0,"x_max":0,"o":""},"":{"ha":694,"x_min":0,"x_max":0,"o":""},"":{"ha":694,"x_min":0,"x_max":0,"o":""},"":{"ha":694,"x_min":176,"x_max":512,"o":"m 266 904 l 266 856 q 279 804 266 817 q 324 791 292 791 q 371 804 358 791 q 384 856 384 818 l 384 904 q 371 956 384 942 q 324 970 358 970 q 279 956 292 970 q 266 904 266 943 m 440 797 l 431 789 q 324 758 387 758 q 219 789 262 758 q 176 869 176 820 q 218 948 176 917 q 324 979 261 979 q 430 948 387 979 q 473 869 473 917 q 473 856 473 862 q 512 795 477 814 q 440 797 453 789 z "},"":{"ha":694,"x_min":0,"x_max":0,"o":""},"":{"ha":694,"x_min":109,"x_max":507,"o":"m 397 898 q 445 912 420 899 q 507 960 472 926 l 507 907 q 451 861 477 879 q 399 842 426 842 q 369 850 386 842 q 336 864 352 857 q 311 877 328 868 q 236 904 264 899 q 235 880 240 892 q 184 897 207 898 q 171 890 178 894 q 109 842 144 876 l 109 895 q 165 944 140 924 q 216 964 191 964 q 254 953 233 964 q 308 926 275 942 q 319 921 312 924 q 339 911 330 916 q 441 930 380 905 q 397 898 427 911 z "},"":{"ha":612,"x_min":97,"x_max":511,"o":"m 309 935 l 138 812 l 97 812 l 231 983 q 258 1011 246 1004 q 288 1018 270 1018 q 309 935 332 1018 m 488 935 l 318 812 l 277 812 l 410 983 q 438 1011 426 1004 q 467 1018 450 1018 q 488 935 511 1018 z "},"":{"ha":1157,"x_min":172,"x_max":985,"o":"m 619 346 q 342 301 399 342 q 388 355 345 325 l 172 375 l 172 454 l 539 505 q 619 512 623 555 l 619 505 l 985 454 l 985 375 l 619 346 z "},"":{"ha":1389,"x_min":172,"x_max":1221,"o":"m 749 346 q 392 301 465 342 q 450 355 394 325 l 172 375 l 172 454 l 646 505 q 749 512 754 555 l 749 505 l 1221 454 l 1221 375 l 749 346 z "},"":{"ha":245,"x_min":61,"x_max":176,"o":"m 137 616 l 107 586 l 62 896 q 61 907 62 901 q 61 922 61 912 q 76 974 61 956 q 118 991 90 991 q 161 974 146 991 q 176 869 176 956 q 174 846 176 863 q 174 842 174 843 l 137 616 z "},"":{"ha":245,"x_min":61,"x_max":176,"o":"m 137 616 l 107 586 l 62 896 q 61 907 62 901 q 61 922 61 912 q 76 974 61 956 q 118 991 90 991 q 161 974 146 991 q 176 869 176 956 q 174 846 176 863 q 174 842 174 843 l 137 616 z "},"":{"ha":245,"x_min":61,"x_max":176,"o":"m 137 -16 l 107 -45 l 62 264 q 61 275 62 270 q 61 291 61 281 q 76 342 61 325 q 118 360 90 360 q 161 342 146 360 q 176 238 176 325 q 174 215 176 232 q 174 210 174 212 l 137 -16 z "},"":{"ha":460,"x_min":61,"x_max":399,"o":"m 360 616 l 330 586 l 286 896 q 284 907 285 901 q 284 922 284 912 q 299 974 284 956 q 341 991 313 991 q 384 974 369 991 q 399 869 399 956 q 397 846 399 863 q 397 842 397 843 l 360 616 m 137 616 l 107 586 l 62 896 q 61 907 62 901 q 61 922 61 912 q 76 974 61 956 q 118 991 90 991 q 161 974 146 991 q 176 869 176 956 q 174 846 176 863 q 174 842 174 843 l 137 616 z "},"":{"ha":460,"x_min":61,"x_max":399,"o":"m 360 616 l 330 586 l 286 896 q 284 907 285 901 q 284 922 284 912 q 299 974 284 956 q 341 991 313 991 q 384 974 369 991 q 399 869 399 956 q 397 846 399 863 q 397 842 397 843 l 360 616 m 137 616 l 107 586 l 62 896 q 61 907 62 901 q 61 922 61 912 q 76 974 61 956 q 118 991 90 991 q 161 974 146 991 q 176 869 176 956 q 174 846 176 863 q 174 842 174 843 l 137 616 z "},"":{"ha":460,"x_min":61,"x_max":399,"o":"m 360 -35 l 330 -64 l 286 245 q 284 256 285 251 q 284 272 284 262 q 299 323 284 306 q 341 341 313 341 q 384 323 369 341 q 399 219 399 306 q 397 196 399 213 q 397 191 397 193 l 360 -35 m 137 -35 l 107 -64 l 62 245 q 61 256 62 251 q 61 272 61 262 q 76 323 61 306 q 118 341 90 341 q 161 323 146 341 q 176 219 176 306 q 174 196 176 213 q 174 191 174 193 l 137 -35 z "},"":{"ha":688,"x_min":0,"x_max":0,"o":""},"":{"ha":688,"x_min":0,"x_max":0,"o":""},"":{"ha":694,"x_min":0,"x_max":0,"o":""},"":{"ha":1389,"x_min":0,"x_max":0,"o":""},"":{"ha":428,"x_min":0,"x_max":0,"o":""},"":{"ha":428,"x_min":0,"x_max":0,"o":""},"":{"ha":232,"x_min":0,"x_max":0,"o":""},"":{"ha":688,"x_min":0,"x_max":0,"o":""},"":{"ha":688,"x_min":0,"x_max":0,"o":""},"":{"ha":1375,"x_min":0,"x_max":0,"o":""},"":{"ha":688,"x_min":0,"x_max":0,"o":""},"":{"ha":1540,"x_min":0,"x_max":0,"o":""},"":{"ha":1015,"x_min":0,"x_max":0,"o":""},"":{"ha":688,"x_min":0,"x_max":0,"o":""},"":{"ha":733,"x_min":0,"x_max":0,"o":""},"":{"ha":1027,"x_min":0,"x_max":0,"o":""},"":{"ha":818,"x_min":0,"x_max":0,"o":""},"":{"ha":1157,"x_min":172,"x_max":985,"o":"m 619 346 q 342 301 399 342 q 388 355 345 325 l 172 375 l 172 454 l 539 505 q 619 512 623 555 l 619 505 l 985 454 l 985 375 l 619 346 z "},"":{"ha":688,"x_min":0,"x_max":0,"o":""},"":{"ha":688,"x_min":0,"x_max":0,"o":""},"":{"ha":451,"x_min":0,"x_max":0,"o":""},"":{"ha":688,"x_min":0,"x_max":0,"o":""},"":{"ha":688,"x_min":0,"x_max":0,"o":""},"":{"ha":688,"x_min":0,"x_max":0,"o":""}}}
